<?xml version="1.0" encoding="UTF-8"?><svg id="Layer_1" xmlns="http://www.w3.org/2000/svg" viewBox="0 0 324.42 144.2"><defs><style>.cls-1{fill:#fffaea;}.cls-2{fill:#4c91ff;}</style></defs><path class="cls-2" d="M5.59,10.23c0-.19.09-.58.37-.68.09,0,.19-.1.37-.1,1.39.1,2.79,0,4.28.19,1.02.19,2.04.19,2.97,0,.46,0,.84.1,1.21.1.84,0,1.58,0,2.32-.19.37,0,.84-.1,1.21-.1,1.12,0,2.32,0,3.53-.1.46,0,1.02.1,1.49,0,.84,0,1.58,0,2.32.1,1.77-.1,3.53,0,5.3-.1.09,0,.28,0,.37-.1.74-.1,1.39-.1,2.14-.1,1.02-.1,2.04-.1,3.16-.1.19,0,.37,0,.56.1.56.19,1.11.19,1.67.19.65,0,1.3.1,1.95.1.84.1,1.58.29,2.32.58.46.19,1.02.19,1.58.39,1.3.58,2.79,1.17,4,1.75,1.39.78,2.51,1.85,3.62,2.92.19.29.37.49.65.78.56.68,1.11,1.26,1.77,1.94.28.49.56,1.17.93,1.75.37.68.74,1.36.93,2.04.09.39.19.58.37.87l.28.97c.09.68.28,1.26.46,1.94.09.39.19.78.19,1.17.09.39.09.87.19,1.36.19,1.26.19,2.63-.09,3.89-.09.39-.09.68-.09,1.07-.09.39-.19.78-.19,1.17-.09.39-.28.78-.37,1.17,0,.88-.28,1.56-.37,2.33-.09.1-.09.29-.19.39-.28.78-.56,1.65-.93,2.43-.37.88-.84,1.65-1.3,2.53,0,.1-.09.19-.19.29l-1.3,1.75c-.46.58-.93,1.17-1.39,1.65-.28.49-.65.88-.93,1.36-.09.19-.09.39.09.49.28.29.65.49,1.02.58.65.29,1.3.68,1.86,1.07l1.67,1.46c.28.29.65.68,1.02,1.07l.84,1.17c.37.49.84.97,1.21,1.56.37.49.74,1.17,1.02,1.75.28.49.56,1.07.74,1.56l.56,1.36c.28.58.46,1.26.56,1.94.46,1.75.28,3.6.28,5.45,0,.58-.19,1.17-.28,1.85,0,.19,0,.39-.09.58s-.19.49-.19.78-.09.49-.19.78c-.28.87-.46,1.85-.93,2.72-.09.49-.37.97-.56,1.46-.37.68-.65,1.36-1.11,1.94-.19.19-.28.49-.37.68-.37.87-.93,1.56-1.58,2.24-.46.49-1.02,1.17-1.67,1.56-.28.19-.56.49-.74.68-.28.19-.46.49-.65.68-.19.29-.37.49-.65.58-.46.19-.84.49-1.3.78-.37.29-.84.49-1.3.58l-1.12.58c-.56.29-1.21.49-1.86.58-.19.1-.46.19-.74.19-.56.19-1.12.39-1.67.49-.56.19-1.11.19-1.77.19-.37,0-.74.1-1.12.19l-2.51.29c-.56,0-1.02,0-1.58.1-.46.1-1.02-.1-1.49,0-.56.1-1.11.1-1.58.1h-5.67c-1.49-.39-2.97-.29-4.46-.29-.46,0-1.02,0-1.58-.1h-.56c-1.21.1-2.42,0-3.72,0-1.21,0-2.42,0-3.62.1-1.11.1-2.23,0-3.35,0-1.39,0-2.7.1-4.09.1-.28,0-.65,0-.93-.1-.65,0-1.21-.19-1.67-.58-.09-.1-.19-.19-.09-.29.09-.19.09-.29.19-.39.19-.19.46-.29.74-.58.37-.49.84-.97,1.21-1.56.19-.49.28-1.07.56-1.65.37-.97.74-2.04.93-3.11.28-1.07.37-2.14.37-3.21,0-.29.09-.58.19-.87,0-.19.09-.49.09-.78.09-1.17.19-2.33.19-3.4v-1.26c0-.58,0-1.26.09-1.85.09-2.53.09-5.06.19-7.49,0-.49,0-.87.09-1.26s0-.78-.09-1.17c-.09-.39-.09-.68.09-1.07.09-.19.09-.39.09-.58.09-.19.09-.39,0-.58-.09-.29-.19-.68-.09-.97.19-.49.28-.97.28-1.36,0-1.07.09-2.04.09-3.11,0-1.85-.09-3.69,0-5.35,0-.19,0-.29-.09-.49,0-.19,0-.49.09-.78v-.39c0-1.07,0-2.24-.09-3.5v-1.65c-.09-2.43,0-4.96-.09-7.39,0-.58-.09-1.17-.09-1.75-.09-.97-.19-1.94-.19-2.82,0-.97,0-2.04.09-3.01,0-.78,0-1.36-.09-2.14l-.28-2.24c0-.19,0-.39-.09-.58-.19-.87-.28-1.75-.65-2.63-.19-.78-.37-1.46-.65-2.14-.37-.78-.56-1.56-1.12-2.24-.09-.19-.19-.29-.37-.49l-.65-.39c0-.19-.09-.29-.19-.39ZM41.47,69.83c.19-.19.37-.39.46-.68.09-.49.37-.97.46-1.56.09-.88.19-1.65.09-2.63-.19-1.26-.37-2.92-1.02-4.28-.19-.29-.28-.58-.46-.97-.56-1.26-1.39-2.14-2.42-2.63-.65-.29-1.3-.68-2.04-.78l-1.49-.39c-.28-.1-.56-.1-.74-.19-1.3,0-2.6-.1-3.9,0h-1.77c-.46-.1-.93-.1-1.39,0-.19,0-.46.29-.46.49l-.19,1.36v4.96c-.09.39-.19.78-.09,1.26.09.39.09.68,0,1.07-.09.39,0,.68,0,1.17.09.49.09.97,0,1.46v.39c.09.58,0,1.07-.09,1.65v2.24c.09.29.46.78.65.78l1.58.29c1.3-.19,2.14-.19,3.07-.1.65.29,1.39.1,2.14.29.46-.1,1.02-.1,1.49-.19.56-.1,1.02-.19,1.58-.49.46-.19,1.02-.19,1.49-.29.19-.1.37-.1.56-.19,1.02-.39,1.86-1.07,2.51-2.04ZM41.19,30.55c-.09-.39-.09-.87-.09-1.26l-.56-1.46c-.19-.49-.46-.87-.74-1.17-.37-.49-.93-.97-1.49-1.26-.46-.29-1.02-.49-1.58-.78-.84-.39-1.58-.68-2.51-.78l-1.3-.29c-.56-.1-1.02-.1-1.58,0-.46.1-1.02.1-1.49.19-.65,0-1.21,0-1.77.1-.09,0-.28,0-.37.1-.09,0-.46.29-.46.39-.09.87-.09,1.65.09,2.43.19.78.19,1.65.19,2.53-.19.97-.19,1.94-.19,2.72,0,.97-.19,1.94,0,2.82,0,.19-.09.29-.19.49-.09.29-.09.58,0,.97.09.1.09.19.09.29,0,.97.09,2.04.09,3.01v.87c0,.19.19.49.37.49.74,0,1.49.1,2.14.1.84,0,1.67,0,2.51-.19.37-.1.65-.1,1.12-.19.46,0,1.02,0,1.49-.1.74-.1,1.39-.29,2.04-.68.37-.19.84-.39,1.12-.68,1.11-.88,1.86-1.56,2.32-2.92.09-.29.28-.58.37-.88.37-.68.56-1.46.56-2.14,0-.97.09-1.85-.19-2.72Z"/><path class="cls-2" d="M68.23,55.83c-.09-.68-.09-1.46,0-2.33v-5.45c.09-1.07,0-1.85.19-2.82.09-.87.09-1.75.09-2.63,0-.68.09-1.46.19-2.24.09-.49.19-1.07.19-1.56,0-.19.09-.39.09-.58.09-.49.28-.97.28-1.56.09-.49.19-1.07.46-1.56.09-.29.09-.58.09-.97.09-.19.09-.49.19-.78.19-.49.19-1.07.46-1.56.19-.49.28-1.07.37-1.56,0-.29,0-.49.09-.68.19-.58.46-1.17.56-1.94l.37-.97c.28-.39.37-.78.56-1.17.19-.49.37-1.17.46-1.94.37-.68.65-1.56,1.02-2.33.28-.68.56-1.36,1.21-2.04.19-.29.46-.68.56-1.07.09-.19.19-.39.37-.49.28-.29.46-.58.74-1.07.28-.49.84-.97,1.21-1.46.65-.78,1.3-1.46,2.14-2.24.28-.29.56-.58.93-.78.56-.29,1.12-.68,1.77-1.17.28-.29.74-.58,1.11-.78.74-.19,1.49-.58,2.14-.88.37-.19.84-.39,1.21-.39.74-.19,1.49-.58,2.32-.78l1.67-.29c.37,0,.65,0,1.02-.1h.93c.46.1.74,0,1.21-.1.19,0,.37,0,.56-.1.46.19,1.77.1,2.23.1,1.12,0,1.67.1,2.14.19.19,0,.37,0,.65.1.65,0,1.39,0,2.04.1.65.1,1.3.39,1.95.49l.74.29c1.12.19,2.05.58,3.07,1.07.28.1.56.19.93.49l.46.29c.09,0,.28.1.37.19.74.58,1.49.97,2.23,1.46.84.68,1.58,1.26,2.23,1.94.65.39,1.21.87,1.49,1.56.19.29.47.58.84.87.56.87,1.21,1.85,1.67,2.82.84,1.26,1.4,2.53,1.77,3.89.19.58.37,1.26.74,1.94.28,1.26.74,2.43,1.02,3.69-.19.29.09.58.56,1.75l.28,1.65c.28,1.17.47,2.33.65,3.31.09.19.09.39.09.58.09.78.28,1.46.37,2.24.09.78.09,1.65.19,2.53.09.1.09.39.09.78,0,.58.09,1.07.09,1.65.19.39.19.88.19,1.36.09.87,0,1.65,0,2.33-.09,1.65-.09,3.31-.19,4.96.09.49.09.87.09,1.36-.18,1.94-.37,3.69-.37,5.54,0,.29-.09.68-.19.97,0,.49-.09.97-.19,1.46l-.28,1.17c-.19.49-.19,1.07-.28,1.46,0,.49-.09.87-.28,1.46-.19.49-.37,1.07-.46,1.65-.09.39-.28.78-.56,1.17-.28.68-.56,1.36-.74,1.94-.28.68-.56,1.26-.74,1.94s-.56,1.26-.84,2.04c-.37.87-.65,1.56-1.12,2.14-.28.68-.74,1.36-1.21,1.75-.28.58-.74,1.17-1.3,1.65-.19.29-.56.58-.74.97-.56.78-1.3,1.56-2.23,2.33-.28.19-.56.49-.84.78-.09.19-.19.19-.37.29-.56.29-1.02.87-1.49,1.26-.46.39-.93.68-1.49.97-.56.1-1.12.39-1.58.78-.09,0-.37.1-.56.19-.37.19-.74.29-1.12.49-.56.19-1.21.68-1.77.87-.65.1-1.21.49-1.95.68-.37-.1-.74-.1-1.12-.1-.28,0-.74.1-1.02.19-.46.1-.93.19-1.3.19-1.58.19-1.86.1-3.62,0-.37,0-.84,0-1.12-.19-.28,0-.56-.1-.84-.1-1.77-.29-2.7-.58-4.18-1.26l-3.16-1.26c-1.58-.68-2.88-1.56-4.27-2.63-1.58-.97-2.79-2.14-4-3.4-.37-.58-.84-1.17-1.3-1.75-.65-.68-1.3-1.46-1.67-2.33-.19-.29-.37-.58-.46-.87-.37-.49-.84-1.07-1.02-1.85,0-.1-.09-.19-.28-.29-.46-.78-.65-1.46-.84-2.24-.19-.87-.37-1.75-.65-2.53-.28-.58-.37-1.26-.46-1.94-.19-.58-.19-1.17-.37-1.75-.19-.19-.19-.39-.19-.68-.09-.49-.09-.97-.28-1.56-.19-.29-.09-.78-.19-1.07-.09-.68-.09-1.26-.28-1.85-.09-.29-.09-.68-.09-.97s0-.58-.09-.87c-.28-.78-.19-1.65-.28-2.53ZM85.89,47.08c-.19.78.09,1.36,0,1.94,0,.39,0,.78-.09,1.26v1.17c-.09,1.07.09,1.94.09,2.82,0,.78,0,1.56.28,2.33,0,.1,0,.29.09.39-.09,1.17,0,2.24.37,3.31,0,.78.37,1.46.56,2.33-.09.19.09.49.09.78.28.78.65,1.65.93,2.63.19.49.28.97.56,1.46s.37.97.65,1.56l.56,1.36c.37.68.84,1.26,1.39,1.85.19.1.37.29.65.39.74.39,1.3.87,1.77,1.36.28.1.56.1.93.19,1.02.49,1.49.49,2.6.19.93-.29,1.58-.78,2.23-1.36.28-.29.56-.49.93-.78.28-.49.46-.97.74-1.36.37-.49.74-.97,1.02-1.46.28-.68.56-1.26.93-1.94.28-.68.46-1.36.65-1.94s.28-1.07.37-1.56c0-.19.09-.49.19-.78.28-.87.74-1.75.84-2.53.09-1.07.28-2.14.37-3.21.19-.87.28-1.65.28-2.53,0-.97,0-1.94.19-3.01.19-.19.19-.49.19-.68,0-.29,0-.49.09-.68.19-1.56.28-3.11.09-4.67.09-.29.09-.58,0-.78,0-.39-.09-.87-.09-1.36s-.09-1.07-.09-1.65c.09-.58-.37-1.17-.37-1.85.09-.97-.09-2.04-.28-2.82,0-.39-.09-.78-.19-1.17-.19-.88-.37-1.75-.37-2.63-.19-.78-.46-1.56-.56-2.33-.09-.29-.28-.68-.37-1.07l-.09-.68c-.46-.87-.84-1.85-1.3-2.82-.28-.49-.65-.88-1.11-1.26-.56-.39-1.02-.88-1.49-1.26-1.21-.58-2.32-1.07-3.72-1.26h-.65c-.46,0-.84.1-1.49.1-.37.1-.65.19-1.12.39-.37.19-.74.39-1.02.68-.46.29-.84.68-1.21,1.17-.56,1.07-1.12,2.14-1.77,3.11-.19.19-1.02,2.62-1.12,3.4-.09.49-.28,1.07-.46,1.56-.28.49-.37.87-.46,1.36s-.09.97-.19,1.46c-.28.39-.28.97-.37,1.36,0,.49-.09.87-.09,1.26-.09.29-.09.68-.09.97-.28,1.65-.37,3.31-.37,4.86.09.39.09.68,0,1.07-.09.49,0,.97-.09,1.36Z"/><path class="cls-2" d="M186.63,9.94c-.19.29-.37.58-.65.78-.09.58-.46.97-.65,1.46-.19.19-.19.39-.28.58-.09.58-.28,1.17-.46,1.65-.19.87-.46,1.75-.46,2.72,0,.49-.09.87-.19,1.26.09.19,0,.39,0,.58v2.63c0,.39.09.68.09,1.07.19.58.19,1.17.19,1.75-.09.68-.09,1.26-.19,1.85v2.33c0,.87.09,1.65.09,2.43,0,1.65.09,3.31.09,4.96-.09,1.56,0,3.21-.09,4.76.09.97.09,1.85,0,2.82v1.07c-.09,2.14-.09,3.31-.19,5.06,0,1.46.09,2.92.09,4.38v.39c-.09,2.24,0,4.38,0,6.51v.87c-.19.68-.09,1.46-.09,2.14-.09.58-.09,1.26-.09,1.94-.09.58-.09,1.17-.28,1.65,0,.19-.09.39-.09.58.09.97-.37,1.85-.37,2.82-.19.78-.37,1.56-.65,2.33-.19.49-.28.97-.47,1.56-.19.78-.46,1.36-.74,2.14,0,.19-.09.29-.18.39-.37.68-.65,1.46-1.12,2.14-.37.87-1.02,1.65-1.77,2.33-.56.49-1.11.97-1.58,1.46-.65.68-1.39,1.26-2.23,1.75-.65.49-1.49.87-2.32,1.36l-1.4.58c-.28.1-.65.19-.93.39-1.21.49-2.51.97-3.9,1.07l-.74.19c-.37.19-.74.19-1.12.19-.74.1-1.49.1-2.14.1l-1.02.19c-.37.1-.84.19-1.3.1h-4.46c-.28,0-.65-.1-.93-.19l-.37-.1c-.46,0-.93,0-1.39-.1-.37-.1-.84-.29-1.3-.49-.28,0-.56-.1-.93-.1-.65-.1-1.21-.29-1.86-.58-.09,0-.28,0-.37-.1-.65-.29-1.49-.49-2.14-.87-1.02-.49-1.95-1.07-2.97-1.65-.28-.1-.46-.29-.65-.49l-2.23-1.75c-.37-.29-1.58-1.56-1.86-2.04-.28-.49-.65-.97-1.02-1.46l-.84-1.17c-.56-.58-.93-1.26-1.12-2.04-.28-1.85-.47-1.94-.84-3.6-.09-.29-.09-1.56-.09-1.85s0-.49-.09-.68c-.28-.87-.28-1.65-.28-2.43,0-1.46-.09-2.92-.09-4.28,0-.87-.18-1.85-.09-2.72-.09-1.46-.09-3.11-.09-4.76,0-1.07,0-2.14.09-3.21.09-.58-.09-.97-.09-1.56,0-.68-.09-1.36,0-2.04v-.97c-.09-1.07-.19-2.14,0-3.21,0-.68.09-1.26.09-1.85-.19-.58,0-1.26,0-1.85-.09-.97,0-1.75,0-2.72,0-1.36,0-2.72-.09-4.08.09-1.46.09-3.01.09-4.47-.09-.39-.09-.68,0-1.07.19-.88.09-1.75,0-2.72,0-.19-.09-.49-.09-.78,0-.39-.09-.78-.09-1.26.09-1.36,0-2.82,0-4.18-.09-.78-.19-1.56-.19-2.33,0-.58-.09-1.17-.19-1.75l-.19-.68c0-.68-.19-1.26-.46-1.75-.56-1.26-1.12-2.33-1.86-3.4-.19-.29-.09-.58.19-.68.09-.19.28-.29.46-.19.65.1,1.21.19,1.77.19.65-.1,1.3,0,1.95-.19.46,0,.93,0,1.3.1,1.3.19,2.51.1,3.72.19,1.67-.1,3.07,0,4.65,0,.65.1,2.14.1,2.7,0,1.49,0,2.88-.1,4.27,0,.84,0,1.58-.1,2.32-.19.19-.1.46.1.46.29q.09.1.09.19c-.46.87-1.02,1.65-1.58,2.43-.19.49-.28.97-.46,1.46-.19.39-.47,1.56-.65,1.85l-.09.39c0,.58-.28,1.07-.28,1.65,0,.87.09,1.75.09,2.62-.09,1.65,0,3.21-.09,4.86,0,.58,0,1.26-.09,1.85,0,.58,0,.97-.09,1.56l-.19,4.86v2.62c0,.58,0,1.26-.09,1.85v1.46c-.09.68-.09,1.46.09,2.33v.78c0,.68-.09,1.36-.09,2.04v1.17c-.09.78,0,1.56.09,2.33,0,.39,0,.78-.09,1.17,0,.97,0,1.94.09,2.82l.28,1.56c-.09.49-.28,1.07-.28,1.65-.09.19-.09.49-.09.78.09.78,0,1.46.09,2.24v.58c-.09,1.36-.09,2.72-.09,4.08.09,1.07.28,2.04.56,3.11.28.68.37,1.26.56,1.94,0,.39.19.78.56,1.07.56.78,1.21,1.46,1.95,2.04.09.1.19.19.37.29.46.29.93.58,1.49.78.28.19,1.49.29,1.86.49.47.1,1.02.1,1.49.1.28-.1.56-.19.74-.39,2.6-.87,3.44-1.85,4.27-2.92.19-.19.28-.49.37-.68l.47-.87c.28-.49.56-1.07.65-1.65.28-.68.37-1.36.37-1.94,0-.39.09-.78,0-1.17,0-.39,0-.68.09-1.07.09-.29.09-.68.09-.97,0-.78,0-1.46.19-2.24,0-.68-.09-1.36-.09-2.04,0-2.72-.09-5.35-.09-8.07,0-.49.09-.97.09-1.46-.09-.68-.19-1.46-.09-2.24v-2.82c.09-.78,0-1.46,0-2.24,0-1.26.09-2.63.19-3.99.09-.1.09-.29.09-.39.19-1.26.09-2.53.19-3.79.09-1.56-.09-3.01,0-4.47v-5.44c-.09-.87-.09-1.75,0-2.63,0-.19-.09-.49-.19-.68-.19-.58-.19-1.26-.19-1.94l-.28-1.56c-.19-.39-.19-.87-.37-1.36-.37-1.17-.93-2.24-1.77-3.11,0-.1-.09-.29-.19-.39-.09-.1-.09-.29-.09-.39.09-.1.19-.19.37-.19.84-.1,1.77-.1,2.7-.1.93.1,1.77.1,2.7.1h2.97l.93.1c.28.1.65.19.93.19,2.32,0,4.09.1,6.41.1.65,0,1.3,0,1.86-.29h.46c.84-.1,1.77-.1,2.7-.1.09,0,.19,0,.37.1.19.1.19.39.09.49Z"/><path class="cls-2" d="M214.69,41.74c0,.97.19,2.63.19,4.57,0,.49-.09,1.07-.19,1.65,0,.29.09.58.09.87-.09,1.26-.09,2.63-.09,3.79,0,.39,0,.58.09.78.19.68.19,1.36.09,2.04v.49c0,2.24-.09,4.28,0,6.42v1.17c0,3.31.09,6.61.19,9.92,0,.68.09,1.56.19,2.14.09.49.09,1.07.19,1.56,0,.29.09.68.19,1.17.09.39.09.78.19,1.07.19,1.36.47,2.72.74,3.6.28.78.65,1.56,1.12,2.24.19.49.37.88.84,1.26.28.29.47.49.56.88.09.19.09.49,0,.58-.09.1-.19.1-.37.19h-.37c-1.3-.1-2.79,0-4.18,0-1.3.1-2.88-.19-4.18-.1-.93,0-2.51.1-2.88,0-.37-.1-5.11,0-5.58,0-1.86.1-3.62,0-5.48,0-.65,0-1.39,0-2.14-.1h-.28c-.19,0-.28-.1-.37-.19,0-.1,0-.29.09-.39.09-.1,1.02-.78,1.3-1.26.28-.19.46-.39.56-.78.19-.29.46-.49.65-.78,0-.1.09-.1.09-.19q.56-1.26.93-2.82c.19-.58.09-1.26.28-1.75.09-.19.09-.49.19-.78,0-.19,0-.49.09-.78.19-.58.28-1.36.19-2.14,0-1.36.09-2.72,0-4.28-.09-.49,0-1.07.09-1.56.09-.19.09-.39,0-.68,0-.29-.09-.58-.09-.97.09-.29,0-.68,0-.97.09-.39,0-.68,0-1.07.19-1.07.09-2.14.09-3.21.09-1.07.09-2.04.09-3.01-.09-.97-.09-1.85,0-2.72.09-.39.19-.87.19-1.36-.09-2.04,0-4.08-.09-6.13v-1.85c0-.58.09-1.17.19-1.85,0-.49.09-1.07.09-1.56-.09-1.94-.09-3.99-.19-5.93v-2.04c0-1.07-.09-2.14-.19-3.21v-.68c.19-1.36.09-2.72,0-3.99,0-1.56,0-3.01.09-4.57v-1.36c-.09-1.26-.09-2.43-.19-3.69,0-.29,0-.68-.09-.97-.09-.19-.19-.39-.19-.58,0-.88-.28-1.75-.37-2.63-.28-1.46-.84-2.72-1.67-3.89-.09-.19-.28-.49-.56-.78,0-.1-.09-.19-.09-.39-.09-.19.09-.49.28-.58l.65-.29c.56.1,1.21.19,1.77.19h1.12c.37.1.93.1,1.3.1.74-.1,1.39-.1,1.95.1.19.1.28,0,.37,0h.93c.46.1,2.97-.1,3.44-.1.56-.1,1.11-.1,1.58-.1.19,0,1.77.39,1.86.29.74-.19,1.58-.1,2.32-.19.37,0,.65,0,1.02.1.37.1.84,0,1.3.1.09,0,.28,0,.46-.1.47-.1,1.12-.1,1.49-.1,1.02-.1,2.6-.1,2.79.1.09.1.09.19.09.39-.09.19-.19.39-.19.49-.28.39-.65.97-.74,1.46v1.75c-.09.19-.09.39,0,.58.09.29.09.68.19.97,0,.19,0,.39.09.58.19.87.37,1.85.74,2.53.47,1.36,1.02,2.53,1.67,3.69.19.19.28.49.37.68.09.49.09.78.28,1.07.09.19.37.49.46.78.19.68.28,1.26.65,1.94.37.58.56,1.17.84,1.65.28.78.56,1.36.84,1.85l1.12,2.82c.28.39.37.78.56,1.26l.56,1.26c.09.68.37,1.07.56,1.65.37.88.65,1.46,1.02,2.14.28.58.46.97.65,1.46.37,1.07.74,1.94,1.3,2.92.93,1.94,1.67,3.89,2.51,5.74,1.02,2.04,1.39,3.6,2.79,6.22.19-1.17,0-4.18,0-5.35,0-.49,0-.88-.09-1.36-.09-.39-.09-.78-.09-1.26v-2.24c-.09-.78,0-1.36-.09-2.04q-.09-1.26,0-2.53v-7.58c0-.49.09-.88.19-1.26,0-.58.09-1.17-.09-1.75-.09-.49-.09-.87,0-1.46.09-.39.09-.87.19-1.17-.09-.49-.09-.68-.09-.97-.19-.58-.19-1.07-.19-1.75,0-1.65-.09-3.21-.09-4.86,0-.87,0-1.56-.19-2.43v-.39c-.09-.87-.37-1.85-.56-2.62-.09-.88-.37-1.75-.84-2.43-.47-.39-.74-.87-1.3-1.26-.19-.19-.28-.39-.37-.68-.09-.29.09-.68.28-.78h1.12c1.58.39,3.16.1,4.74.1.46,0,.93.1,1.39.1h1.77c.47,0,1.02,0,1.4-.1,2.42,0,3.44-.1,4.37,0,.28.1.65,0,.84,0,1.11,0,2.32.1,3.44,0,.56-.1,1.11,0,1.77,0,.65-.1,1.21-.1,1.95-.29.28-.1.65,0,.93.29.09.1.09.39.09.49-.09.1-.09.19-.09.19-.37.29-.65.29-.84.78l-1.21,3.31c-.19.78-.56,1.46-.56,2.24,0,.58-.19,1.17-.19,1.75-.09.88-.09,1.75-.09,2.63,0,1.07-.09,2.04-.28,3.01-.09.29-.09.58-.09.87.09.87,0,1.75,0,2.63v2.43c0,.87-.09,1.75-.09,2.63v.68c-.09.29-.19.68-.19.97-.09.97-.09,2.04-.09,3.01v11.47c0,.49-.09.87-.09,1.36-.09.19-.09.39,0,.58.09.97.09,1.94.09,2.92l-.09.97c-.19.58-.19,1.26-.09,1.85.19.58.19,1.17.19,1.85-.09,1.07,0,2.14,0,3.21,0,.39,0,.68-.09,1.07,0,.29-.09.58-.09.97l.09.97c.09.49.09.97.09,1.46v13.22c.09,1.07.09,2.14,0,3.31v.58c.09,1.07.09,2.14,0,3.21v1.56c0,.29-.19.39-.65.39-.19-.1-.28.1-.47,0s-.37,0-.56,0h-1.12c-.28,0-.65,0-.93-.1-.37,0-.65,0-.93.1-.37.1-.84,0-1.21,0-.65-.19-1.3-.19-3.44-.1h-.37c-.28-.1-.56-.1-1.02,0-.28.1-.65.1-.84.1-1.12.1-1.12,0-.37,0-1.02,0-1.58-.19-2.51-.19l-1.3.19c-.37,0-1.02.19-1.3.1-.37,0-1.3-2.72-2.7-5.74-1.49-2.92-2.7-5.93-3.16-7.1-.19-.49-.37-1.07-.65-1.46-.46-.78-.93-1.65-1.11-2.43-.65-1.36-1.21-2.72-1.86-3.99-.28-.39-.47-.68-.56-1.07-.09-.49-.09-.78-.28-1.07-.37-.78-.65-1.56-1.02-2.24,0-.58-.19-.97-.56-1.36-.19-.39-.46-.97-.65-1.46-.28-1.07-.74-1.94-1.12-2.92-.28-.58-.46-1.26-.84-1.75-.09-.1-.09-.19-.09-.29-.37-1.07-.84-1.85-1.39-2.82l-.56-1.26c-.19-.68-.46-1.17-.74-1.65-.65-1.56-1.02-2.82-1.86-4.38-.09-.19-.56-1.65-.65-1.65-.28-.78-.46-1.46-.65-1.85l-.28.1Z"/><path class="cls-2" d="M319.15,47.18c.09.29.09.68,0,.97-.19,1.17-.19,2.33-.19,3.4-.09.19,0,.49-.09.78-.19.87-.28,1.75-.37,2.63-.09.78-.37,1.56-.37,2.43,0,.1-.09.19-.09.39-.28,1.26-.65,2.43-.74,3.79-.09.49-.28.97-.28,1.56-.09.58-.37,1.07-.47,1.56l-.37,1.56c-.09.49-.37.78-.37,1.26s-.19.97-.28,1.46c-.19.58-.46,1.26-.74,1.85-.09.39-.28.78-.56,1.07-.28.49-.56.97-.84,1.56-.65,1.26-1.39,2.53-2.23,3.79-.37.58-.84,1.17-1.39,1.75-1.02,1.17-2.14,2.33-3.25,3.4-.93.78-1.86,1.36-2.88,1.94-.93.58-1.86,1.07-2.7,1.65-.09,0-.19,0-.19.1-.65.1-1.21.39-1.86.49-1.49.29-2.79.58-4.09,1.07-1.02.19-2.05.19-2.97.39-.56-.19-1.02.1-1.58.1-1.02,0-2.04,0-3.07.1h-1.95c-1.12.1-2.23,0-3.35.1l-3.72-.1c-.19,0-.37,0-.56-.1-.37-.1-.84-.1-1.21,0-1.12.1-2.32-.1-3.44,0-.65-.1-1.3,0-1.95,0h-2.79c-.47,0-1.02-.1-1.49-.19-.37-.1-.84,0-1.21.1-.19.1-.37.1-.56.1-.19-.1-.47-.39-.37-.58.09-.19.09-.29.19-.39.37-.68.74-1.26,1.02-1.94.28-.68.46-1.36.56-2.04.09-.39.28-.88.46-1.36s.28-.97.28-1.56c0-1.17.09-2.33,0-3.4,0-.49,0-.87.19-1.26s.28-.87.28-1.36c-.19-.78-.09-1.65,0-2.33.09-.58.09-1.17,0-1.85-.09-.19-.09-.49,0-.78.09-.29,0-.68,0-.97.09-1.46.19-2.92.19-4.38-.09-1.26-.09-2.43-.09-3.69,0-.58,0-1.07.09-1.65.19-.87.19-1.75.09-2.63-.09-.68,0-1.36,0-2.04s0-1.46-.09-2.24c0-.29-.09-.68-.19-.97-.09-.39-.09-.87,0-1.26.09-.1.09-.19.09-.29,0-.49-.19-1.07-.09-1.56.09-.49.09-.97,0-1.46,0-.19,0-.39-.09-.58-.19-1.07-.09-2.14,0-3.21.09-.88-.09-1.75-.09-2.63,0-.39,0-.68.09-1.07,0-.1.09-.29,0-.49-.09-.58-.19-1.07,0-1.65v-2.53c0-1.36.09-2.72.09-4.08-.09-.88-.09-1.85-.19-2.82,0-1.07,0-2.14-.09-3.21-.09-.49-.09-.88-.19-1.26-.09-.39-.09-.78,0-1.17v-1.85l-.09-.97c-.09-.29-.19-.58-.19-.87s-.09-.68-.19-1.07l-.19-.78c0-.87-.28-1.65-.65-2.33l-.93-1.85c-.19-.39-.37-.68-.65-.97-.19-.19-.28-.49-.19-.78.09-.19.28-.49.56-.49.56-.1,1.12-.1,1.77-.1,2.14,0,4.37.1,6.6.1h.74c1.86,0,4.93,0,7.44-.1,1.3,0,2.7,0,4.09.1,1.3,0,2.7,0,4.09-.1,1.3-.1,2.7,0,4,.1.84.19,1.67.29,2.51.49.74.19,1.58.19,2.32.49,1.02.19,1.95.58,2.97.97l1.39.58c.84.49,1.58.97,2.32,1.56.65.49,1.4,1.07,1.95,1.65.37.19.65.39,1.02.68.28.19.56.49.84.78.65.49,1.21.97,1.58,1.65.93,1.07,1.67,2.24,2.51,3.4.84,1.26,1.49,2.72,2.23,4.08l.28.97c.37.87.65,1.75,1.02,2.62.28.97.65,1.94.74,2.92l.28.78c.19.78.47,1.46.47,2.33,0,.19.09.39.09.58.19.49.28,1.07.28,1.56.09.19.09.39.09.58.37.87.37,1.75.37,2.72,0,.68.09,1.26.19,1.85.19.78.19,1.65.19,2.43,0,.68,0,1.36.19,2.04ZM301.49,50.19c0-.49-.09-.97-.09-1.46-.09-.49-.19-1.07-.09-1.56.09-1.56-.19-3.11-.28-4.67,0-.29-.09-.58-.09-.88-.09-.19-.09-.39-.19-.58,0-.49-.09-1.07-.09-1.56-.09-.58-.47-.97-.56-1.56,0-.49-.09-.88-.28-1.36-.19-.87-.56-1.75-.74-2.53-.37-1.07-.74-2.24-1.49-3.31-.56-1.07-1.4-2.04-2.42-2.82-.46-.39-.93-.78-1.58-1.17-.84-.29-1.49-.58-2.32-.78-.84-.29-1.77-.58-2.6-.68h-.65c-.74-.29-1.49-.29-2.14-.1-.28,0-.56.19-.56.39-.09.49-.37.87-.09,1.46.09.19,0,.49,0,.78,0,.58-.19,1.17-.19,1.75,0,.49-.09.97-.09,1.56.09.58.09,1.17.09,1.85-.09.58,0,1.07-.09,1.65-.09.68.09,1.26,0,1.85,0,.29.09.58,0,.87,0,.19,0,.39-.09.58,0,.87,0,1.94-.09,2.92.09,1.65.09,3.31.09,4.86,0,.78,0,1.56-.19,2.24v2.04c.09.49.09,1.17,0,1.75,0,.97.09,2.04.28,3.01.09.19.09.39.09.58-.09.88-.09,1.75,0,2.72,0,.49,0,1.07-.09,1.56-.09.39-.09.68-.09.97-.09,2.04-.09,3.99,0,5.93v.49c.09,1.17,0,2.24.09,3.31-.09.68,0,1.36,0,1.94,0,.19.09.39.28.49,0,.19,1.12.39,1.49.29.56-.1,1.12-.19,1.77-.19.65-.1,1.39-.39,2.14-.39.74-.1,1.4-.29,2.42-.39l1.58-1.07c.65-.39,1.21-.78,1.67-1.46.09-.19.46-.39.74-.49.19-.19.37-.39.46-.68l.65-.97c.09-.29.28-.39.28-.68.19-.68.56-1.26.84-1.85.09-.29.19-.58.19-.87-.09-.19-.09-.39,0-.58.37-.78.56-1.65.84-2.43.46-.97.65-1.94.74-3.01.19-1.36.28-2.72.28-3.99.09-.58.09-1.17.19-1.65.09-.78.09-1.46,0-2.14Z"/><path class="cls-1" d="M39.01,129.33c-.03.62-.15,1.2-.28,1.78-.03.29-.09.55-.15.81-.15.68-.43,1.3-.9,1.88-.09.1-.15.23-.25.32-.25.26-.46.58-.77.71-.12.06-.22.16-.34.26-.43.36-.9.65-1.49.75-.43.1-.87.23-1.27.36-.19.07-.37.1-.56.1-.71,0-1.36.23-2.05.26-.53.03-1.08.03-1.61.1-.37-.1-.71-.13-1.08-.03-.15.03-.31,0-.43,0h-1.33c-.56,0-1.08-.06-1.61-.06-.46.03-.93-.03-1.36.03-1.15-.06-2.14-.03-3.04-.03-.4,0-.81,0-1.24-.03-.19,0-.37-.03-.59-.03-.34,0-.71,0-1.08-.03-.43,0-1.21,0-1.61.03-.43,0-.87.03-1.33.03-.28.03-.59.06-.87.06-.53,0-1.12-.03-1.64-.03-.77.03-1.58.03-2.36.06h-.99c-.53,0-.99.03-1.49-.06h-.37c-.46,0-.96,0-1.43-.1-.22-.03-.43,0-.65,0l-1.24.03v-1.39h-.03s.03-.06.03-.1c-.03-.32-.06-.68-.06-1q-.03-.23-.09-.39c-.06.03-.03-.39.15-.81.09-.03.22-.06.31-.06.56.03,1.12.06,1.64,0,.25-.03.5.03.77-.03.22,0,.43.03.65-.03.03-.06.06-.13.06-.16.06-.55.15-1.26.19-1.91v-3.5c0-.81-.03-1.62-.06-2.4,0-1.3.03-2.59.03-3.86-.03-.84-.06-1.72-.03-2.59,0-1,.03-2.01.03-3.01,0-.29-.03-.55-.03-.84,0-.1-.06-.19-.06-.29-.12-.06-1.18-.06-1.92-.06-.22,0-.4.03-.59.03-.31.03-.65.03-.99.07-.15,0-.4-.1-.5-.19-.06-.65-.09-1.26-.15-1.85-.03-.29-.03-.58-.03-.87,0-.19.09-.36.22-.52.09-.16.19-.19.31-.26.06,0,.15.03.28.03.06,0,.28.03.34,0,.74-.06,1.3.03,2.11,0,.81-.1,1.64-.03,2.45-.06.65,0,1.33.03,1.98,0h.28c1.27.03,2.51,0,3.75-.03h.4c.74.03,1.86-.06,2.6-.03.31,0,.62,0,.93.03,1.15.03,2.32-.03,3.47.03,1.7.06,3.1.06,4.46.03.5-.03,1.05-.03,1.55-.03h.56c.25,0,.5-.03.77-.07.43.03.87,0,1.3,0,.31,0,.65.03,1.02.03.87.03,1.74.16,2.63.39.22.03.43.16.65.26.74.39,1.27.97,1.7,1.62.22.32.37.68.46,1.04.09.29.12.62.12.91-.03.78-.06,1.56-.25,2.3-.06.13-.09.29-.15.45-.28.71-.56,1.43-.84,1.91-.06.1-.09.19-.15.26-.25.58-.53,1.07-.77,1.62-.06.13-.12.29-.19.52.06,0,.09.03.15.06.37.2.74.39,1.12.62.59.29,1.08.71,1.46,1.33.31.52.62,1.04.84,1.59.12.29.19.91.28,1.26.25,1.04.28,1.91.25,2.82ZM34.86,127.39c-.03-.26-.09-.65-.31-.91-.12-.16-.22-.32-.31-.65-.31-.45-.65-.78-1.21-.87l-1.33-.2c-.5-.06-.96-.16-1.43-.16-.53.03-1.08.03-1.61-.03-.12,0-.25.03-.4.03-.22.03-.46.13-.68.06-.34-.06-.71-.03-1.08-.03-.37-.03-.74,0-1.15-.03-.56,0-1.12-.03-1.64,0-.68.03-1.7,0-2.39,0-.19-.03-.4-.07-.59-.03-.37.13-.71.1-1.05.06-.65-.06-1.3-.13-1.92-.06h-.56c-.99-.06-1.7,0-2.36.1-.28.03-.56-.06-.84-.06-.25.03-.46.03-.68.03s-.43.06-.65.06c-.37,0-.74-.03-1.15-.03-.28,0-.34.29-.34.58v1.26c0,.68-.03,1.49-.06,2.17,0,.62,0,1.75-.03,2.4-.03.45-.03,1.07.12,1.69.09.03.15.03.22.03l1.12.1c1.21.1,2.45.03,3.66.03h2.82c.59.03,1.15,0,1.74,0,.77.03,1.86-.1,2.6,0h.68c.71.06,1.43.1,2.17.13h.59c.25-.06.5-.06.74-.1.31,0,.59-.03.9-.03l.87-.1h1.18l1.18-.19c.46-.1.93-.23,1.36-.29.25-.06.46-.16.65-.36.4-.52.77-.68,1.05-1.81.25-.97.19-1.88.12-2.79ZM11.34,120.68c.25.03.46.03.71.03.34.03.68.13,1.02.1,1.74-.03,1.46.06,3.22-.06.25-.03,2.85.1,3.1.06.31-.03,2.63-.03,2.97,0,.74,0,3.28.03,4.34,0,1.95,0,4.4-.03,4.15-.03.09-.13.15-.19.25-.29.37-.65.74-1.33,1.15-1.82.19-.36.37-.75.5-1.17.19-.55.34-1.1.28-1.72-.03-.75-.56-1.59-1.95-1.59l-1.98-.03c-.25,0-2.11.03-2.36,0-.53-.1-1.08-.1-1.67-.1-.28,0-.59.07-.87.03h-2.36c-.34-.03-.71-.03-1.12.03-.25.03-.5.03-.74-.03-.19-.03-.43-.06-.62-.03-.4.07-.81.07-1.18,0-.34-.03-.68.1-1.02-.03-.09-.03-.15.03-.25.03-.43.07-.56.07-.62.07-.22-.07-.43-.13-.65-.1-.4,0-.81.03-1.24.03-.62,0-1.21,0-1.8-.06-.46-.03-.87,0-1.27.1-.03.16-.06.26-.06.39.06.39,0,.71-.03,1.1,0,.62-.03,1.23,0,1.88.06.65.06,1.3-.06,2.37-.03.29,0,.62.15.84Z"/><path class="cls-1" d="M76.87,125.77c0,.39-.12.84,0,1.3v.1c-.12.55-.06,1.1-.06,1.65-.03.65-.03,1.36-.31,1.98,0,.06-.03.13-.03.19,0,.49-.19.94-.34,1.39-.37.78-.9,1.43-1.49,2.04-.37.39-.81.71-1.24.97-.5.32-.96.58-1.55.68l-1.52.29c-.65.13-1.27.39-1.92.2h-.15c-.56,0-1.15,0-1.74.1-.09,0-.19,0-.28-.03-.87-.06-2.57,0-3.22,0l-2.39-.03c-.34,0-.65.03-.77.03v-.03l-.9.03c-1.89.06-3.59-.13-4.46-.06-.09.03-.19.03-.28.03-.59-.1-1.18,0-1.74,0h-.15c-.96,0-1.27-.03-1.92-.19-.46-.1-.99-.23-1.52-.32-.59-.1-1.05-.36-1.55-.68-.43-.26-.77-.68-1.24-.97-.96-.58-1.12-1.26-1.49-2.04-.15-.45-.34-.91-.34-1.39,0-.06-.03-.13-.03-.19-.28-.62-.28-1.33-.31-1.98,0-.55.06-1.1-.06-1.65v-.1c.12-.45,0-.91,0-1.3.03-.78-.09-1.52-.03-2.27-.06-.75.06-1.49.03-2.27,0-.39.12-.84,0-1.3v-.1c.12-.55.06-1.1.06-1.65.03-.65.03-1.36.31-1.98,0-.07.03-.13.03-.19,0-.49.19-.94.34-1.39.37-.78.9-1.43,1.49-2.04.37-.39.81-.71,1.24-.97.5-.32.96-.58,1.55-.68.53-.1,1.05-.23,1.52-.32.65-.16,1.27-.39,1.92-.19h.15c.56,0,1.15.1,1.74,0,.09,0,.19,0,.28.03.87.06,2.57-.03,3.53,0l1.46.03c.34,0,.65-.03.77-.03h.93v.03l.9-.03c.96-.03,3.28.06,4.15,0,.09-.03.19-.03.28-.03.59.1,1.18,0,1.74,0h.15c.96,0,1.27.03,1.92.19.46.1.99.23,1.52.32.59.1,1.05.36,1.55.68.43.26.77.68,1.24.97.96.58,1.12,1.26,1.49,2.04.15.45.34.91.34,1.39,0,.06.03.13.03.19.28.62.28,1.33.31,1.98,0,.55-.06,1.1.06,1.65v.1c-.12.45,0,.91,0,1.3-.03.78.09,1.52.03,2.27.06.75-.06,1.49-.03,2.27ZM72.81,123.14v-.68c0-.71-.06-.13-.06-.81v-1c0-.32-.03-.65-.03-1,.09-.75-.12-1.43-.22-2.17-.09-.36-.28-.68-.43-1-.12-.29-.28-.52-.5-.71-.19-.16-.34-.29-.56-.42-.25-.23-.53-.42-.77-.62-.15-.06-.28-.16-.4-.13-.31.06-.56-.07-.84-.1-.9-.1-2.14-.19-3.07-.19h-4.8v.03l-.74-.03c-.12.03-.25.03-.4,0h-5.17c-.93,0-1.83.1-2.73.19-.28.03-.77.16-1.08.1-.15-.03-.25.06-.4.13-.28.19-.56.39-.81.62-.22.13-.37.26-.53.42-.22.23-.4.42-.53.71-.19.32-.34.65-.43,1-.09.75-.34,1.43-.25,2.17,0,.36-.03.68-.03,1v1c0,.68-.09.1-.09.81s.03.75.03,1.39h-.03v.68c0,.71.06.13.06.81v1c0,.32.03.65.03,1-.09.75.12,1.43.22,2.17.09.36.28.68.43,1,.12.29.28.52.5.71.19.16.34.29.56.42.25.23.53.42.77.62.15.06.28.16.4.13.31-.06.56.06.84.1.9.1,2.14.19,3.07.19h4.18v-.03l1.67.03c.12-.03.25-.03.4,0h4.87c.93,0,1.83-.1,2.73-.19.28-.03.77-.16,1.08-.1.15.03.25-.06.4-.13.28-.2.56-.39.81-.62.22-.13.37-.26.53-.42.22-.23.4-.42.53-.71.19-.32.34-.65.43-1,.09-.75.34-1.43.25-2.17,0-.36.03-.68.03-1v-1c0-.68.09-.1.09-.81s-.03-.75-.03-1.39h.03Z"/><path class="cls-1" d="M115.25,125.77c0,.39-.12.84,0,1.3v.1c-.12.55-.06,1.1-.06,1.65-.03.65-.03,1.36-.31,1.98,0,.06-.03.13-.03.19,0,.49-.19.94-.34,1.39-.37.78-.9,1.43-1.49,2.04-.37.39-.81.71-1.24.97-.5.32-.96.58-1.55.68l-1.52.29c-.65.13-1.27.39-1.92.2h-.16c-.56,0-1.15,0-1.74.1-.09,0-.19,0-.28-.03-.87-.06-2.57,0-3.22,0l-2.39-.03c-.34,0-.65.03-.77.03v-.03l-.9.03c-1.89.06-3.59-.13-4.46-.06-.09.03-.19.03-.28.03-.59-.1-1.18,0-1.74,0h-.15c-.96,0-1.27-.03-1.92-.19-.46-.1-.99-.23-1.52-.32-.59-.1-1.05-.36-1.55-.68-.43-.26-.77-.68-1.24-.97-.96-.58-1.12-1.26-1.49-2.04-.15-.45-.34-.91-.34-1.39,0-.06-.03-.13-.03-.19-.28-.62-.28-1.33-.31-1.98,0-.55.06-1.1-.06-1.65v-.1c.12-.45,0-.91,0-1.3.03-.78-.09-1.52-.03-2.27-.06-.75.06-1.49.03-2.27,0-.39.12-.84,0-1.3v-.1c.12-.55.06-1.1.06-1.65.03-.65.03-1.36.31-1.98,0-.07.03-.13.03-.19,0-.49.19-.94.34-1.39.37-.78.9-1.43,1.49-2.04.37-.39.81-.71,1.24-.97.5-.32.96-.58,1.55-.68.53-.1,1.05-.23,1.52-.32.65-.16,1.27-.39,1.92-.19h.15c.56,0,1.15.1,1.74,0,.09,0,.19,0,.28.03.87.06,2.57-.03,3.53,0l1.46.03c.34,0,.65-.03.77-.03h.93v.03l.9-.03c.96-.03,3.28.06,4.15,0,.09-.03.19-.03.28-.03.59.1,1.18,0,1.74,0h.16c.96,0,1.27.03,1.92.19.47.1.99.23,1.52.32.59.1,1.05.36,1.55.68.43.26.77.68,1.24.97.96.58,1.12,1.26,1.49,2.04.15.45.34.91.34,1.39,0,.06.03.13.03.19.28.62.28,1.33.31,1.98,0,.55-.06,1.1.06,1.65v.1c-.12.45,0,.91,0,1.3-.03.78.09,1.52.03,2.27.06.75-.06,1.49-.03,2.27ZM111.19,123.14v-.68c0-.71-.06-.13-.06-.81v-1c0-.32-.03-.65-.03-1,.09-.75-.12-1.43-.22-2.17-.09-.36-.28-.68-.44-1-.12-.29-.28-.52-.5-.71-.18-.16-.34-.29-.56-.42-.25-.23-.53-.42-.78-.62-.16-.06-.28-.16-.4-.13-.31.06-.56-.07-.84-.1-.9-.1-2.14-.19-3.07-.19h-4.8v.03l-.74-.03c-.12.03-.25.03-.4,0h-5.17c-.93,0-1.83.1-2.73.19-.28.03-.77.16-1.08.1-.15-.03-.25.06-.4.13-.28.19-.56.39-.81.62-.22.13-.37.26-.53.42-.22.23-.4.42-.53.71-.19.32-.34.65-.43,1-.09.75-.34,1.43-.25,2.17,0,.36-.03.68-.03,1v1c0,.68-.09.1-.09.81s.03.75.03,1.39h-.03v.68c0,.71.06.13.06.81v1c0,.32.03.65.03,1-.09.75.12,1.43.22,2.17.09.36.28.68.43,1,.12.29.28.52.5.71.19.16.34.29.56.42.25.23.53.42.77.62.15.06.28.16.4.13.31-.06.56.06.84.1.9.1,2.14.19,3.07.19h4.18v-.03l1.67.03c.12-.03.25-.03.4,0h4.87c.93,0,1.83-.1,2.73-.19.28-.03.77-.16,1.08-.1.16.03.25-.06.4-.13.28-.2.56-.39.8-.62.22-.13.37-.26.53-.42.22-.23.4-.42.53-.71.18-.32.34-.65.43-1,.09-.75.34-1.43.25-2.17,0-.36.03-.68.03-1v-1c0-.68.09-.1.09-.81s-.03-.75-.03-1.39h.03Z"/><path class="cls-1" d="M157.22,134.78l-.09,1.62s-.03.06-.03.1c-.06,0-.12.06-.28.1-.31.13-.65.03-.99.03-.25-.03-.5-.06-.71,0h-.31c-.19,0-.4-.03-.62.03-.19,0-.4,0-.59-.07-.12-.03-.28.03-.4.03-.56-.03-1.08.06-1.64.03-.56,0-1.08-.03-1.64-.03h-.4c-.19,0-.31-.13-.4-.29-.09-.13-.16-.29-.22-.45-.28-.58-.56-1.17-.87-1.72-.31-.58-.59-1.2-.93-1.78-.09-.19-.12-.39-.25-.58-.09-.2-.22-.36-.34-.52,0-.03-.03-.07-.03-.1-.18-.62-.84-1.65-1.08-2.24-.25-.65-.59-1.2-.9-1.81-.12-.26-.25-.62-.43-.78-.12-.13-.25-.26-.37-.36-.28-.29-.56-.52-.96-.58-.09-.03-.19-.1-.31-.16-.65-.03-1.33-.03-2.01-.03h-1.52c-.4,0-.84-.06-1.24-.03-.34,0-.68,0-.99-.06-.15-.03-.59,0-.71.03-.03,0-.09.03-.15.03-.28-.1-.62,0-.96-.03-1.49,0-2.01-.03-1.61.03-.4.03-.8,0-1.24,0-.56,0-1.15-.03-1.74-.03h-.18c-.96,0-1.92.03-2.88.03-.09,0-.19.03-.28.06-.06.03-.09.1-.15.16,0,.03-.03.06-.03.1-.12,1.1-.22,2.24-.16,3.34-.06.62,0,1.2,0,1.82-.03.62.03,1.39,0,1.98-.03.06,0,.13,0,.23s.16.26.25.29l.5.1h.22c.65-.03,1.92-.03,2.57-.06h.59c.15-.03.28-.06.4-.1.19.06.31.16.37.32.03.13.09.29.12.39v1.26c.03.26-.06.49-.12.68v.49c0,.06-.03.13-.03.2-.03.16-.19.26-.31.26h-.09c-.25,0-.43-.16-.68-.13-.22.03-.43,0-.62-.03-.25,0-1.12,0-1.33-.03-.22,0-.4,0-.62.06-.65,0-1.3-.06-1.95.03-.12,0-.25-.06-.4-.03-.28,0-.53-.03-.8-.06-.25,0-.47.1-.71.1-.47,0-.96.03-1.43-.03-.34,0-.68-.06-1.02.03-.06.03-1.02.07-1.08.07-.43,0-.84-.03-1.24-.03-.06,0-.12-.03-.19-.06-.12,0-.25-.16-.28-.26-.03-.36.03-.71,0-1.07-.03-.39-.03-.75-.03-1.1,0-.19.06-.36.16-.49.03-.03.06-.06.06-.1.03-.03.03-.06.06-.13.06-.06.15-.13.25-.13.5,0,.96-.03,2.36-.06h.8c.06,0,.12-.03.19-.1,0-.1-.03-.23,0-.32.12-.29.12-.62.12-1.2,0-1.17-.03-2.37,0-3.53.03-.58.03-1.13.03-1.72-.03-.52,0-1.07.03-1.59.03-.13.03-.23.03-.32-.06-.36.03-.71-.03-1.07-.03-.45-.06-.94.03-1.39v-.2c-.06-.29-.06-.58-.06-.87.03-.32,0-.62,0-.94,0-.16,0-.29.03-.42.06-.23.03-.42,0-.65-.03-.36-.03-.71.06-1.04l-.06-.45c0-.13-.03-.29.03-.42.09-.42.09-.84,0-1.26-.03-.19-.06-.42-.06-.65.03-.36-.03-.68-.06-1.04-.06-.1-.16-.16-.25-.16-.53-.03-1.95,0-2.48.1-.22.03-.46.03-.71,0-.06,0-.12-.03-.19-.07-.12-.03-.22-.16-.25-.29-.03-.1-.03-.23-.06-.32,0-.39-.03-.78-.06-1.17-.03-.29-.03-.58.03-.87.03-.16-.03-.32.03-.52,0-.06.03-.13.09-.16.22-.1.4-.16.59-.13.62.03,2.17,0,2.79.03.34.03.68.03,1.02.1.25.07.53.07.81.07.22,0,.4-.07.62-.07.19,0,.4.07.59.07h.53c.56-.03,2.08.03,2.66-.07.19-.03.4,0,.59.03.31,0,.62,0,.93-.07h.19c.4.03.84-.06,1.24-.03.06,0,.18.1.18.19.03.06.06.13.03.19-.06.55,0,1.07,0,1.62-.03.29.03.55.06.84,0,.13-.09.29-.19.36-.09.06-.19.13-.28.16-.06,0-.12.03-.18.03-.65,0-1.3.19-1.95.16-.37-.03-1.67-.03-2.05-.13-.09,0-.28.13-.31.26,0,.06-.03.13-.03.19-.03.81-.06,1.65,0,2.46v.19c-.03.36,0,.71,0,1.07.03.16.03.29.03.42.03.42.06.81.06,1.2l-.03,1.36c0,.06.03.13.03.2,0,.1.16.23.22.23.09,0,.19.03.31.03.77-.03,1.55,0,2.32,0,1.12.03,2.2.03,3.28.03h.71c.15,0,.28-.03.4.03.03,0,.06.03.09.03.43-.03.87-.06,1.3-.06h.5c.93-.03,1.55-.03,2.17-.03s1.21-.06,1.83-.03c.37.03.74-.07,1.12-.07.09,0,.22-.06.25-.16.5-.71.87-1.52,1.33-2.5.25-.52.56-1.04.84-1.59.06-.06.09-.16.15-.26.37-.42.59-.94.87-1.46.12-.23.22-.52.31-.78.09-.26.31-.45.37-.75.03-.1,0-.16-.09-.19s-.19,0-.28,0c-.34.03-.68.06-1.02.06-.31.03-.62-.03-.93-.03h-.31c-.12,0-.31-.19-.31-.36-.03-.16-.06-.29-.03-.42.09-.42.09-.84.03-1.3v-.13c.06-.29.09-.58.15-.91.03-.23.28-.42.53-.42.09,0,.22-.03.31,0,.28.1.59.03.9.13.44,0,.9.03,1.33.03.5,0,1.02.03,1.52.03.37,0,.74,0,1.15-.03.43-.03.87,0,1.3,0,.25,0,.5.1.74.1.19-.03.4-.03.59-.03s.34-.03.53-.03c.12-.03.25-.03.4,0,.19.03.4.03.59,0,.22-.06.4-.06.62-.1.34-.03.68.13,1.02.03.37-.07.68,0,.96-.03.06,0,.15,0,.22.03.06,0,.25.23.25.32s0,.19-.03.23c0,.29-.03.62,0,.94,0,.19.03.39.12.55-.09.1-.06.19-.03.29-.06.23.03.52,0,.75,0,.07-.12.23-.18.23-.03.03-.06.03-.09.03-.56.03-1.05.06-1.61.06-.25,0-.53.16-.81,0-.12,0-.25-.03-.37,0-.16,0-.34.03-.5-.03-.19-.03-.34-.03-.53,0-.09,0-.18.03-.31,0-.37-.1-.74-.03-1.12-.06-.09,0-.19.06-.25.13-.12.1-.22.23-.28.32l-.25.49c-.16.32-.28.62-.46.91l-.56,1.04c-.15.29-.34.62-.5.91-.31.58-.59,1.13-.9,1.69l-.19.39c-.16.23-.28.49-.43.71-.22.32-.37.68-.53,1.04-.06.16,0,.39.15.49.12.06.25.13.34.23.22.13.43.19.62.36.18.2.34.36.5.55l.22.2c.19.32.37.61.53.94.18.26.31.55.43.84.19.49.44.97.62,1.46.22.49.47.97.68,1.43.31.65.93,1.72,1.21,2.37,0,.03.03.06.03.1.37.55.59,1.04.9,1.62.15.32.31.65.5.97.03.06.12.13.25.13h.62c.19,0,.4,0,.62.03.37.1.71.1,1.09,0,.12,0,.22.03.31.03.09.03.22.07.34.07l.68-.1c.22-.03.46-.03.71-.06.12,0,.28.1.31.23.03.06.06.13.06.19.03.39.09,1,.09,1.39ZM133.4,121.72h.22-.22Z"/><path class="cls-1" d="M197.77,136.63c-.87-.06-1.64,0-2.6,0l-2.39-.03c-.34,0-.65.03-.77.03h-.93v-.03l-.9.03c-.96.03-2.05-.13-2.91-.06-.06.03-.09.03-.28.03-.59-.1-1.18,0-1.74,0h-.15c-.96-.03-1.27-.03-1.92-.19-.46-.1-.99-.23-1.52-.32-.5-.06-.93-.26-1.55-.68-.44-.26-.78-.68-1.24-.97-.96-.58-1.12-1.26-1.49-2.04-.16-.45-.34-.91-.34-1.39,0-.06-.03-.13-.03-.19-.28-.62-.28-1.33-.31-1.98,0-.55.06-1.1-.06-1.65v-.1c.12-.45,0-.91,0-1.3.03-.78-.09-1.52-.03-2.27-.06-.75.06-1.49.03-2.27,0-.39.12-.84,0-1.3v-.1c.12-.55.06-1.1.06-1.65.03-.65.03-1.36.31-1.98,0-.07.03-.13.03-.19,0-.49.19-.94.34-1.39.31-.65.74-1.26,1.49-2.04.31-.32.71-.65,1.24-.97.62-.42,1.05-.62,1.55-.68.53-.1,1.05-.23,1.52-.32.65-.16,1.27-.39,1.92-.19h.15c.56,0,1.15.1,1.74,0,.19,0,.22,0,.28.03.87.06.4,0,1.36,0l3.01.03c.34,0,.65-.03.77-.03h.93v.03l.9-.03c.96-.03,2.66.06,3.53,0,.09-.03.19-.03.28-.03.59.1,1.18,0,1.74,0h.16c.96,0,1.27.03,1.92.19.62.13,1.09.32,1.46.55.19.13.37.23.62.42l.06.03c.09.07.25.19.4.26l.18.13h.03c.06,0,.09-.03.09-.1.03-.29,0-.75,0-1,0-.19,0-.23.03-.29.06-.1.09-.13.12-.13.37-.1.65-.13.9-.13.22,0,.46-.03.71.07.12.03.28.06.43.06.34,0,.65.06.99,0,.12,0,.31.16.31.29.09.58.16,1.2.16,1.88v1.78c-.03.55-.06,1.07-.06,1.62-.03.29,0,.55,0,.84v.87c0,.16.03.29.03.42,0,.55.03,2.11-.16,2.11l-1.89.03-.62-.03h-.03c-.25.03-.31.03-.4-.03-.71,0-.99-.06-.99-.26.09-.75-.12-1.78-.22-2.53-.09-.36-.28-.68-.44-1-.12-.29-.28-.52-.5-.71-.25-.19-.37-.32-.56-.42-.25-.23-.53-.42-.78-.62-.16-.06-.28-.16-.4-.13-.31.06-.56-.03-.84-.1-.84-.16-2.08-.26-3.07-.26h-4.18v.03l-.74-.03c-.12.03-.25.03-.4,0h-4.56c-.84,0-1.55.06-2.73.19-.28.03-.77.16-1.09.1-.15-.03-.25.07-.4.13-.47.32-.65.45-.81.62-.22.13-.37.26-.53.42-.31.32-.43.49-.53.71-.22.39-.34.68-.43,1-.09.75-.34,1.49-.25,2.24,0,.36-.03.68-.03,1v1c-.03.68-.09.1-.09.81s.03.75.03,1.39h-.03v.68c0,.71.06.13.06.81v1c0,.32.03.65.03,1-.09.65.12,1.33.22,2.07.09.36.28.68.43,1,.12.29.28.52.5.71.25.2.37.32.56.42.25.23.53.42.77.62.16.06.28.16.4.13.31-.06.56.06.84.1,1.02.13,2.23.19,3.07.19h3.56v-.03l.74.03c.12-.03.25-.03.4,0h3.28c.4,0,.84-.03,1.24-.03h.53c.93,0,1.15,0,1.46-.03.34.03.71.03,1.08,0,.19-.03.4.06,2.57-.06.22-.03.47-.03.71-.06.03,0,.06-.03.09-.03.09-.03.19-.03.25-.1.16-.1.28-.23.43-.32.28-.23.43-.55.47-1,.03-.06.03-.1.03-.26v-.78c0-.49.03-1,.03-1.49,0-.13.12-.23.25-.23l2.6-.2c.22-.03.44-.03.62,0,.22.03.4.2.47.39.03.03.03.06.03.2.03.1.03.16.03.49-.03.39-.03.81,0,1.23,0,.88-.06,1.65-.16,2.43-.09,1.07-.31,1.69-.74,2.2-.12.19-.34.42-.59.65-.53.29-1.02.52-1.8.78l-.77.13c-.59.1-1.09.13-1.55.06-.12,0-.25,0-.43.06-.09,0-.19.03-.28,0-.56-.06-1.15-.06-1.7-.1-.28,0-.53.13-.81.06-.28,0-.53-.03-.8.03-.19.03-.37.03-.53,0l-.16-.03q-.03.07-.09.07c-.16,0-.22,0-.28-.03Z"/><path class="cls-1" d="M237.7,136.56c-.59-.03-1.15-.03-1.7,0h-1.12c-.4-.03-.8-.1-1.21-.1-.37,0-1.64.03-1.98.06-.65-.03-.22.03-.9,0-.96-.06-.71-.03-1.67.03-.96,0-1.92-.06-2.91-.06h-.4c-1.02.1-2.05.16-3.07.03h-.09c-.71.06-1.43-.03-2.14.03-.25.03-.53-.03-.84-.03h-2.29c-.37,0-.74.03-1.12.06-.62.03-1.24.03-1.89.03-.22,0-.4,0-.62-.03-.06,0-.16-.03-.25-.06-.06-.1-.16-.23-.22-.29v-.16c.22-.91.19-1.59.12-2.07,0-.23-.03-.42-.03-.62,0-.1.03-.19.06-.29.22-.06.44-.16.65-.19.25-.1.53-.13.78-.13.68,0,1.36,0,2.04.06.44.03.87-.03,1.33-.1.19-.32.19-.65.15-1-.06-.94.03-1.91.03-2.85v-1.52c0-.58.03-1.17.03-1.72-.03-.45-.03-.88,0-1.33,0-1.65,0-3.31-.03-4.99.03-1.49,0-2.79.03-3.76,0-.39-.03-.78-.09-1.17-.34-.16-1.02-.03-1.36-.07h-.96c-.37-.03-1.02-.06-1.36-.03-.31,0-.62.16-.99,0,0-1.52-.09-2.66.09-3.76.15-.16.28-.13.4-.13.53.03,1.43.1,1.98.06.4,0,.84-.03,1.58-.03.65,0,1.27.03,1.92.03.56,0,1.08-.03,1.61,0,.53-.03,1.02-.03,1.52-.03.46,0,.96,0,1.46.03,1.86,0,2.14.03,2.48,0,.4-.13.81.03,1.24-.03.25,0,.28-.1.62.16l-.03,1.98c0,.23.03.45.03.68-.03.52.03.52-.12,1-.53,0-1.36.16-1.95.03-.31-.06-.62,0-2.48-.03-.4-.03-.84-.03-1.24-.03-.12,0-.25.06-.37.1-.03.45-.09.84-.06,1.3.03.52-.03,1-.06,1.59,0,.84-.06,1.52-.06,2.69-.03.45.03.87.06,1.36-.03.65,0,1.3-.03,1.98.03.65.03,1.33.03,1.94v2.43c-.03.94.03,1.82.09,2.75l.09,2.17c0,.1.03.2.03.32.19,0,.37.03.53.03h2.04c.44,0,.9-.03,1.33,0,.65,0,1.27.03,1.86.03.25.03.56,0,.81,0,.43,0,.87-.03,1.36,0-.25.03-.34.03.68.03.87,0,2.7-.03,3.56-.13h.62c.5,0,.93-.03,1.39-.03h1.52c.16,0,.12,0,.31-.03.37-.68.65-1.39.96-2.04.34-.94.84-2.01,1.24-2.92.12-.26.28-.49.4-.71.96-.26,3.28-.26,4.12-.16.15.36-.19.71-.25,1.04-.22.49-.4.91-.56,1.36-.06.16-.16.29-.25.45-.34.55-.53,1.13-.81,1.69-.25.65-.56,1.23-.87,1.81-.12.26-.25.49-.31.75-.09.19-.16.71-.25.91-.06.19-.19.39-.22.58-.09.45-.28.91-.78,1.17-1.05-.03-2.17-.1-3.28-.13Z"/><path class="cls-1" d="M282.16,114.17c-.09.1-.19.19-.34.13-.09-.03-.84-.03-.93-.03h-2.04c-.16.03-.34.19-.31.36,0,.23,0,.42-.03.65-.06.16-.09.36-.06.52.09.55,0,.65.06,1.2-.03.19.03.42.06.62.03.16.03.29,0,.42-.09.32-.12.65-.12.97,0,.19,0,.42.06.62.06.32.09.65.06.97,0,.65.03,1.17,0,1.81.03.62.03,1.23.03,1.82,0,.23.03.45.06.65-.03.81-.03,1.65-.09,2.46,0,.1,0,.23-.03.32-.12.29-.03.55.03.84-.09.58-.16,1.2-.19,1.78-.03.52-.12,1-.28,1.46-.09.32-.16.62-.28.97l-.25.42c-.19.42-.5.75-.81,1.07-.15.19-.37.36-.68.55.12.1-.37.49-.53.62-.31.23-.65.36-.93.55-.06.06-.16.06-.22.1-.31.1-.62.23-.96.36-.18.03-.4,0-.59.03-.43,0-.84.03-1.24.13-.25.06-.53.1-.81.06-.65-.03-1.49,0-2.14,0-.9,0-1.83-.03-2.76.03h-.59c-.78-.03-1.21,0-1.95.03-.5.03-2.54,0-3.04.03-.34-.06-.84-.03-1.18,0h-.09c-.15-.03-.28-.06-.4-.06h-3.01c-.12-.06-.22-.1-.31-.13-.09-.03-.22,0-.31.03-.34.1-.68.03-1.02.06-.09,0-.19-.03-.28-.03-.28-.2-.59-.16-.93-.2-.16,0-.28-.16-.44-.23-.15-.1-.34-.16-.46-.23-.19-.13-.37-.23-.56-.32-.43-.2-.84-.49-1.21-.84-.28-.29-.56-.62-.8-.94-.19-.26-.37-.55-.47-.84-.15-.32-.28-.65-.4-1-.03-.2-.09-.42-.16-.62,0-.16-.06-.36-.06-.52-.09-.23-.15-.42-.15-.62,0-.26-.03-.52-.03-.78s0-.55-.03-.84c-.03-.16-.06-.36-.06-.52.06-.58.03-1.13,0-1.72,0-.1,0-.23-.03-.32.09-.88,0-1.78,0-2.66.03-.32.03-.65,0-.97-.03-.06-.03-.13-.03-.23l.09-.42c0-.16-.03-.36,0-.52,0-.42.03-.84.03-1.3.03-.87,0-1.78-.03-2.66,0-.45-.03-.94,0-1.39,0-.19-.03-.62,0-1.04.03-.16,0-.29-.03-.42-.03-.03-.03-.06-.06-.13-.09-.03-.15-.1-.28-.13-.09-.03-.19-.07-.28-.07-.28,0-1.33,0-1.58.07-.09.03-.22.06-.31,0-.12-.03-.25-.07-.4-.07-.12.03-.25,0-.4-.03-.12-.06-.25-.16-.25-.29-.09-.68-.06-1.36.03-2.27.06-.16.03-.32-.03-.52-.03-.1-.03-.19,0-.29.03-.13.19-.29.28-.29.25,0,.5-.03.71-.07.15,0,.28.16.4.13.19-.06.96-.06,1.12-.03.12.03.22.03.31.06.28.06.53-.1.8-.1.44-.03.84,0,1.24.06.06.03.12.03.19.03.37-.1.74,0,1.12.03.28-.1.53-.13.8-.1.25,0,.5.03.71.06.12,0,2.42,0,2.51-.03.25-.03.47-.06.71,0,1.8.03,1.09.03,1.36.06.25-.03.5-.06.77-.06.12-.03.28.13.28.26s.03.29.03.42l-.03,1.52c.03.39-.03.78-.03,1.17-.03.16-.15.32-.31.36.15.03.03.03-.09.03-.34,0,.53.03-1.43-.06-.22-.03-.4-.03-.62.03s-2.66-.03-2.91.06c-.06.03-.12.06-.12.13-.03.06-.06.13-.06.19,0,.62-.06,1.23,0,1.59-.06.94,0,1.88.03,2.79,0,.06,0,.16-.03.23-.06.78-.03,1.56,0,2.33,0,.91-.03,1.91-.03,2.92.03.32.03.65.03.94.03.45.03.94-.03,1.36-.03.19-.03.42,0,.65.09.58.16,1.2.16,1.78,0,.26.03.52.09.75.03.06.06.13.06.2.03.19.12.36.18.52.16.26.4.49.5.81.03.1.12.16.19.23.22.26.43.45.74.65.15.06.31.13.46.23.16.06.31.13.46.13l.5.1c.16.03.28.06.44.06h.4c.81,0,1.21.03,2.01,0,1.15,0,2.17.03,3.32,0,1.33-.03,3.04-.06,4.06,0h.4c.53.03,1.02-.06,1.55,0,.46.03.93,0,1.43.03.4,0,.81-.03,1.21-.03.65-.03,1.3-.16,1.92-.32l.19-.1c.34-.16.62-.39.87-.71.15-.26.37-.49.53-.78.12-.26.28-.49.34-.78.12-.49.31-.94.37-1.43,0-.36.06-.71.06-1.07,0-.49.06-1-.03-1.49v-.23c.06-.52.03-1.07.03-1.59,0-.29.03-.55-.03-.84-.03-.23,0-.42.03-.65.09-.42,0-.84,0-1.17-.03-.94.03-1.85-.03-2.79.06-.71.03-1.43-.03-2.14,0-.49.03-.58-.06-1.07,0-.03.03-.06.03-.1,0-.13.03-.23,0-.32-.03-.1-.06-.19-.06-.26l.09-.45c0-.07-.12-.23-.19-.26-.06,0-.12-.03-.18-.03h-2.88c-.46-.03-1.3-.03-1.74-.03-.09,0-.22-.03-.31-.06-.12,0-.31-.23-.34-.36-.03-.36-.06-.71.03-1.49.06-.49.09-.97.06-1.49,0-.13.12-.26.25-.32s.25-.06.4-.03c.59.13,2.76.06,3.38.06.34-.1,1.36.03,1.74-.1.22.03.46.1.68.03.15-.03.28-.03.43-.03.25,0,.53-.03.81-.03.59.03,1.15.06,1.74.03.77,0,1.58-.03,2.36-.03.12,0,.9,0,1.02.03.28.06.4.29.44.52.03.36.03.71,0,1.07,0,.23,0,.84.03,1.07.06.36.03.71-.06,1.07Z"/><path class="cls-1" d="M321.5,129.33c-.03.62-.16,1.2-.28,1.78-.03.29-.09.55-.16.81-.15.68-.43,1.3-.9,1.88-.09.1-.15.23-.25.32-.25.26-.47.58-.77.71-.12.06-.22.16-.34.26-.43.36-.9.65-1.49.75-.43.1-.87.23-1.27.36-.19.07-.37.1-.56.1-.71,0-1.36.23-2.04.26-.53.03-1.09.03-1.61.1-.37-.1-.71-.13-1.09-.03-.15.03-.31,0-.43,0h-1.33c-.56,0-1.09-.06-1.61-.06-.47.03-.93-.03-1.36.03-1.15-.06-2.14-.03-3.04-.03-.4,0-.8,0-1.24-.03-.18,0-.37-.03-.59-.03-.34,0-.71,0-1.08-.03-.44,0-1.21,0-1.61.03-.44,0-.87.03-1.33.03-.28.03-.59.06-.87.06-.53,0-1.12-.03-1.64-.03-.78.03-1.58.03-2.36.06h-.99c-.53,0-.99.03-1.49-.06h-.37c-.47,0-.96,0-1.43-.1-.22-.03-.43,0-.65,0l-1.24.03v-1.39h-.03s.03-.06.03-.1c-.03-.32-.06-.68-.06-1q-.03-.23-.09-.39c-.06.03-.03-.39.15-.81.09-.03.22-.06.31-.06.56.03,1.12.06,1.64,0,.25-.03.5.03.77-.03.22,0,.43.03.65-.03.03-.06.06-.13.06-.16.06-.55.15-1.26.18-1.91v-3.5c0-.81-.03-1.62-.06-2.4,0-1.3.03-2.59.03-3.86-.03-.84-.06-1.72-.03-2.59,0-1,.03-2.01.03-3.01,0-.29-.03-.55-.03-.84,0-.1-.06-.19-.06-.29-.12-.06-1.18-.06-1.92-.06-.22,0-.4.03-.59.03-.31.03-.65.03-.99.07-.15,0-.4-.1-.5-.19-.06-.65-.09-1.26-.15-1.85-.03-.29-.03-.58-.03-.87,0-.19.09-.36.22-.52.09-.16.19-.19.31-.26.06,0,.15.03.28.03.06,0,.28.03.34,0,.74-.06,1.3.03,2.11,0,.8-.1,1.64-.03,2.45-.06.65,0,1.33.03,1.98,0h.28c1.27.03,2.51,0,3.75-.03h.4c.74.03,1.86-.06,2.6-.03.31,0,.62,0,.93.03,1.15.03,2.32-.03,3.47.03,1.7.06,3.1.06,4.46.03.5-.03,1.05-.03,1.55-.03h.56c.25,0,.5-.03.77-.07.43.03.87,0,1.3,0,.31,0,.65.03,1.02.03.87.03,1.74.16,2.63.39.22.03.43.16.65.26.74.39,1.27.97,1.7,1.62.22.32.37.68.47,1.04.09.29.12.62.12.91-.03.78-.06,1.56-.25,2.3-.06.13-.09.29-.16.45-.28.71-.56,1.43-.84,1.91-.06.1-.09.19-.16.26-.25.58-.53,1.07-.78,1.62-.06.13-.12.29-.18.52.06,0,.09.03.15.06.37.2.74.39,1.12.62.59.29,1.09.71,1.46,1.33.31.52.62,1.04.84,1.59.12.29.19.91.28,1.26.25,1.04.28,1.91.25,2.82ZM317.35,127.39c-.03-.26-.09-.65-.31-.91-.12-.16-.22-.32-.31-.65-.31-.45-.65-.78-1.21-.87l-1.33-.2c-.5-.06-.96-.16-1.43-.16-.53.03-1.08.03-1.61-.03-.12,0-.25.03-.4.03-.22.03-.47.13-.68.06-.34-.06-.71-.03-1.08-.03-.37-.03-.74,0-1.15-.03-.56,0-1.12-.03-1.64,0-.68.03-1.7,0-2.39,0-.19-.03-.4-.07-.59-.03-.37.13-.71.1-1.05.06-.65-.06-1.3-.13-1.92-.06h-.56c-.99-.06-1.7,0-2.36.1-.28.03-.56-.06-.84-.06-.25.03-.47.03-.68.03s-.43.06-.65.06c-.37,0-.74-.03-1.15-.03-.28,0-.34.29-.34.58v1.26c0,.68-.03,1.49-.06,2.17,0,.62,0,1.75-.03,2.4-.03.45-.03,1.07.12,1.69.09.03.16.03.22.03l1.12.1c1.21.1,2.45.03,3.66.03h2.82c.59.03,1.15,0,1.74,0,.78.03,1.86-.1,2.6,0h.68c.71.06,1.43.1,2.17.13h.59c.25-.06.5-.06.74-.1.31,0,.59-.03.9-.03l.87-.1h1.18l1.18-.19c.46-.1.93-.23,1.36-.29.25-.06.46-.16.65-.36.4-.52.77-.68,1.05-1.81.25-.97.19-1.88.12-2.79ZM293.83,120.68c.25.03.46.03.71.03.34.03.68.13,1.02.1,1.74-.03,1.46.06,3.22-.06.25-.03,2.85.1,3.1.06.31-.03,2.63-.03,2.97,0,.74,0,3.28.03,4.34,0,1.95,0,4.4-.03,4.15-.03.09-.13.15-.19.25-.29.37-.65.74-1.33,1.15-1.82.19-.36.37-.75.5-1.17.19-.55.34-1.1.28-1.72-.03-.75-.56-1.59-1.95-1.59l-1.98-.03c-.25,0-2.11.03-2.36,0-.53-.1-1.09-.1-1.67-.1-.28,0-.59.07-.87.03h-2.36c-.34-.03-.71-.03-1.12.03-.25.03-.5.03-.74-.03-.18-.03-.43-.06-.62-.03-.4.07-.8.07-1.18,0-.34-.03-.68.1-1.02-.03-.09-.03-.16.03-.25.03-.43.07-.56.07-.62.07-.22-.07-.43-.13-.65-.1-.4,0-.8.03-1.24.03-.62,0-1.21,0-1.8-.06-.47-.03-.87,0-1.27.1-.03.16-.06.26-.06.39.06.39,0,.71-.03,1.1,0,.62-.03,1.23,0,1.88.06.65.06,1.3-.06,2.37-.03.29,0,.62.16.84Z"/></svg>