<?xml version="1.0" encoding="UTF-8"?><svg id="Layer_1" xmlns="http://www.w3.org/2000/svg" viewBox="0 0 247.6 110.05"><defs><style>.cls-1{fill:#704f48;}.cls-2{fill:#eb5e3a;}</style></defs><path class="cls-2" d="M7.81,9.21c0-.14.07-.43.27-.5.07,0,.14-.07.28-.07,1.03.07,2.06,0,3.17.14.76.14,1.51.14,2.2,0,.34,0,.62.07.89.07.62,0,1.17,0,1.72-.14.28,0,.62-.07.89-.07.83,0,1.72,0,2.62-.07.34,0,.76.07,1.1,0,.62,0,1.17,0,1.72.07,1.31-.07,2.62,0,3.92-.07.07,0,.21,0,.28-.07.55-.07,1.03-.07,1.58-.07.76-.07,1.51-.07,2.34-.07.14,0,.28,0,.41.07.41.14.83.14,1.24.14.48,0,.96.07,1.45.07.62.07,1.17.22,1.72.43.34.14.76.14,1.17.29.96.43,2.06.86,2.96,1.3,1.03.58,1.86,1.37,2.68,2.16.14.22.28.36.48.58.41.5.83.94,1.31,1.44.21.36.41.86.69,1.3.28.5.55,1.01.69,1.51.07.29.14.43.28.65l.21.72c.07.5.21.94.34,1.44.07.29.14.58.14.86.07.29.07.65.14,1.01.14.94.14,1.94-.07,2.88-.07.29-.07.5-.07.79-.07.29-.14.58-.14.86-.07.29-.21.58-.28.86,0,.65-.21,1.15-.28,1.73-.07.07-.07.22-.14.29-.21.58-.41,1.22-.69,1.8-.28.65-.62,1.22-.96,1.87,0,.07-.07.14-.14.22l-.96,1.3c-.34.43-.69.86-1.03,1.22-.21.36-.48.65-.69,1.01-.07.14-.07.29.07.36.21.22.48.36.76.43.48.22.96.5,1.38.79l1.24,1.08c.21.22.48.5.76.79l.62.86c.28.36.62.72.9,1.15.28.36.55.86.76,1.3.21.36.41.79.55,1.15l.41,1.01c.21.43.34.94.41,1.44.34,1.3.21,2.66.21,4.03,0,.43-.14.86-.21,1.37,0,.14,0,.29-.07.43s-.14.36-.14.58-.07.36-.14.58c-.21.65-.34,1.37-.69,2.02-.07.36-.28.72-.41,1.08-.27.5-.48,1.01-.83,1.44-.14.14-.21.36-.28.5-.28.65-.69,1.15-1.17,1.66-.34.36-.76.86-1.24,1.15-.21.14-.41.36-.55.5-.21.14-.34.36-.48.5-.14.22-.27.36-.48.43-.34.14-.62.36-.96.58-.28.22-.62.36-.96.43l-.83.43c-.41.22-.9.36-1.38.43-.14.07-.34.14-.55.14-.41.14-.83.29-1.24.36-.41.14-.83.14-1.31.14-.28,0-.55.07-.83.14l-1.86.22c-.41,0-.76,0-1.17.07-.34.07-.76-.07-1.1,0-.41.07-.83.07-1.17.07h-4.2c-1.1-.29-2.2-.22-3.3-.22-.34,0-.76,0-1.17-.07h-.41c-.9.07-1.79,0-2.75,0-.89,0-1.79,0-2.68.07-.83.07-1.65,0-2.48,0-1.03,0-2,.07-3.03.07-.21,0-.48,0-.69-.07-.48,0-.89-.14-1.24-.43-.07-.07-.14-.14-.07-.22.07-.14.07-.22.14-.29.14-.14.34-.22.55-.43.28-.36.62-.72.9-1.15.14-.36.21-.79.41-1.22.28-.72.55-1.51.69-2.3.21-.79.27-1.58.27-2.38,0-.22.07-.43.14-.65,0-.14.07-.36.07-.58.07-.86.14-1.73.14-2.52v-.94c0-.43,0-.94.07-1.37.07-1.87.07-3.74.14-5.54,0-.36,0-.65.07-.94s0-.58-.07-.86c-.07-.29-.07-.5.07-.79.07-.14.07-.29.07-.43.07-.14.07-.29,0-.43-.07-.22-.14-.5-.07-.72.14-.36.21-.72.21-1.01,0-.79.07-1.51.07-2.3,0-1.37-.07-2.74,0-3.96,0-.14,0-.22-.07-.36,0-.14,0-.36.07-.58v-.29c0-.79,0-1.66-.07-2.59v-1.22c-.07-1.8,0-3.67-.07-5.47,0-.43-.07-.86-.07-1.3-.07-.72-.14-1.44-.14-2.09,0-.72,0-1.51.07-2.23,0-.58,0-1.01-.07-1.58l-.21-1.66c0-.14,0-.29-.07-.43-.14-.65-.21-1.3-.48-1.94-.14-.58-.27-1.08-.48-1.58-.28-.58-.41-1.15-.83-1.66-.07-.14-.14-.22-.28-.36l-.48-.29c0-.14-.07-.22-.14-.29ZM34.38,53.35c.14-.14.28-.29.34-.5.07-.36.28-.72.34-1.15.07-.65.14-1.22.07-1.94-.14-.94-.28-2.16-.76-3.17-.14-.22-.21-.43-.34-.72-.41-.94-1.03-1.58-1.79-1.94-.48-.22-.96-.5-1.51-.58l-1.1-.29c-.21-.07-.41-.07-.55-.14-.96,0-1.93-.07-2.89,0h-1.31c-.34-.07-.69-.07-1.03,0-.14,0-.34.22-.34.36l-.14,1.01v3.67c-.07.29-.14.58-.07.94.07.29.07.5,0,.79-.07.29,0,.5,0,.86.07.36.07.72,0,1.08v.29c.07.43,0,.79-.07,1.22v1.66c.07.22.34.58.48.58l1.17.22c.96-.14,1.58-.14,2.27-.07.48.22,1.03.07,1.58.22.34-.07.76-.07,1.1-.14.41-.07.76-.14,1.17-.36.34-.14.76-.14,1.1-.22.14-.07.28-.07.41-.14.76-.29,1.38-.79,1.86-1.51ZM34.17,24.26c-.07-.29-.07-.65-.07-.94l-.41-1.08c-.14-.36-.34-.65-.55-.86-.28-.36-.69-.72-1.1-.94-.34-.22-.76-.36-1.17-.58-.62-.29-1.17-.5-1.86-.58l-.96-.22c-.41-.07-.76-.07-1.17,0-.34.07-.76.07-1.1.14-.48,0-.89,0-1.31.07-.07,0-.21,0-.28.07-.07,0-.34.22-.34.29-.07.65-.07,1.22.07,1.8.14.58.14,1.22.14,1.87-.14.72-.14,1.44-.14,2.02,0,.72-.14,1.44,0,2.09,0,.14-.07.22-.14.36-.07.22-.07.43,0,.72.07.07.07.14.07.22,0,.72.07,1.51.07,2.23v.65c0,.14.14.36.28.36.55,0,1.1.07,1.58.07.62,0,1.24,0,1.86-.14.28-.07.48-.07.83-.14.34,0,.76,0,1.1-.07.55-.07,1.03-.22,1.51-.5.28-.14.62-.29.83-.5.83-.65,1.38-1.15,1.72-2.16.07-.22.21-.43.28-.65.28-.5.41-1.08.41-1.58,0-.72.07-1.37-.14-2.02Z"/><path class="cls-2" d="M54.2,42.98c-.07-.5-.07-1.08,0-1.73v-4.03c.07-.79,0-1.37.14-2.09.07-.65.07-1.3.07-1.94,0-.5.07-1.08.14-1.66.07-.36.14-.79.14-1.15,0-.14.07-.29.07-.43.07-.36.21-.72.21-1.15.07-.36.14-.79.34-1.15.07-.22.07-.43.07-.72.07-.14.07-.36.14-.58.14-.36.14-.79.34-1.15.14-.36.21-.79.28-1.15,0-.22,0-.36.07-.5.14-.43.34-.86.41-1.44l.28-.72c.21-.29.27-.58.41-.86.14-.36.28-.86.34-1.44.28-.5.48-1.15.76-1.73.21-.5.41-1.01.89-1.51.14-.22.34-.5.41-.79.07-.14.14-.29.28-.36.21-.22.34-.43.55-.79.21-.36.62-.72.89-1.08.48-.58.96-1.08,1.58-1.66.21-.22.41-.43.69-.58.41-.22.83-.5,1.31-.86.21-.22.55-.43.83-.58.55-.14,1.1-.43,1.58-.65.28-.14.62-.29.89-.29.55-.14,1.1-.43,1.72-.58l1.24-.22c.28,0,.48,0,.76-.07h.69c.34.07.55,0,.9-.07.14,0,.28,0,.41-.07.34.14,1.31.07,1.65.07.83,0,1.24.07,1.58.14.14,0,.28,0,.48.07.48,0,1.03,0,1.51.07.48.07.96.29,1.45.36l.55.22c.83.14,1.51.43,2.27.79.21.07.41.14.69.36l.34.22c.07,0,.21.07.28.14.55.43,1.1.72,1.65,1.08.62.5,1.17.94,1.65,1.44.48.29.89.65,1.1,1.15.14.22.34.43.62.65.41.65.89,1.37,1.24,2.09.62.94,1.03,1.87,1.31,2.88.14.43.28.94.55,1.44.21.94.55,1.8.76,2.74-.14.22.07.43.41,1.3l.21,1.22c.21.86.34,1.73.48,2.45.07.14.07.29.07.43.07.58.21,1.08.28,1.66.07.58.07,1.22.14,1.87.07.07.07.29.07.58,0,.43.07.79.07,1.22.14.29.14.65.14,1.01.07.65,0,1.22,0,1.73-.07,1.22-.07,2.45-.14,3.67.07.36.07.65.07,1.01-.14,1.44-.27,2.74-.27,4.1,0,.22-.07.5-.14.72,0,.36-.07.72-.14,1.08l-.21.86c-.14.36-.14.79-.21,1.08,0,.36-.07.65-.21,1.08-.14.36-.28.79-.34,1.22-.07.29-.21.58-.41.86-.21.5-.41,1.01-.55,1.44-.21.5-.41.94-.55,1.44s-.41.94-.62,1.51c-.28.65-.48,1.15-.83,1.58-.21.5-.55,1.01-.89,1.3-.21.43-.55.86-.96,1.22-.14.22-.41.43-.55.72-.41.58-.96,1.15-1.65,1.73-.21.14-.41.36-.62.58-.07.14-.14.14-.28.22-.41.22-.76.65-1.1.94-.34.29-.69.5-1.1.72-.41.07-.83.29-1.17.58-.07,0-.27.07-.41.14-.28.14-.55.22-.83.36-.41.14-.89.5-1.31.65-.48.07-.9.36-1.45.5-.28-.07-.55-.07-.83-.07-.21,0-.55.07-.76.14-.34.07-.69.14-.96.14-1.17.14-1.38.07-2.68,0-.28,0-.62,0-.83-.14-.21,0-.41-.07-.62-.07-1.31-.22-2-.43-3.1-.94l-2.34-.94c-1.17-.5-2.13-1.15-3.17-1.94-1.17-.72-2.07-1.58-2.96-2.52-.28-.43-.62-.86-.96-1.3-.48-.5-.96-1.08-1.24-1.73-.14-.22-.28-.43-.34-.65-.28-.36-.62-.79-.76-1.37,0-.07-.07-.14-.21-.22-.34-.58-.48-1.08-.62-1.66-.14-.65-.28-1.3-.48-1.87-.21-.43-.28-.94-.34-1.44-.14-.43-.14-.86-.28-1.3-.14-.14-.14-.29-.14-.5-.07-.36-.07-.72-.21-1.15-.14-.22-.07-.58-.14-.79-.07-.5-.07-.94-.21-1.37-.07-.22-.07-.5-.07-.72s0-.43-.07-.65c-.21-.58-.14-1.22-.21-1.87ZM67.28,36.5c-.14.58.07,1.01,0,1.44,0,.29,0,.58-.07.94v.86c-.07.79.07,1.44.07,2.09,0,.58,0,1.15.21,1.73,0,.07,0,.22.07.29-.07.86,0,1.66.28,2.45,0,.58.27,1.08.41,1.73-.07.14.07.36.07.58.21.58.48,1.22.69,1.94.14.36.21.72.41,1.08s.28.72.48,1.15l.41,1.01c.28.5.62.94,1.03,1.37.14.07.28.22.48.29.55.29.96.65,1.31,1.01.21.07.41.07.69.14.76.36,1.1.36,1.93.14.69-.22,1.17-.58,1.65-1.01.21-.22.41-.36.69-.58.21-.36.34-.72.55-1.01.28-.36.55-.72.76-1.08.21-.5.41-.94.69-1.44.21-.5.34-1.01.48-1.44s.21-.79.28-1.15c0-.14.07-.36.14-.58.21-.65.55-1.3.62-1.87.07-.79.21-1.58.28-2.38.14-.65.21-1.22.21-1.87,0-.72,0-1.44.14-2.23.14-.14.14-.36.14-.5,0-.22,0-.36.07-.5.14-1.15.21-2.3.07-3.46.07-.22.07-.43,0-.58,0-.29-.07-.65-.07-1.01s-.07-.79-.07-1.22c.07-.43-.28-.86-.28-1.37.07-.72-.07-1.51-.21-2.09,0-.29-.07-.58-.14-.86-.14-.65-.28-1.3-.28-1.94-.14-.58-.34-1.15-.41-1.73-.07-.22-.21-.5-.28-.79l-.07-.5c-.34-.65-.62-1.37-.96-2.09-.21-.36-.48-.65-.83-.94-.41-.29-.76-.65-1.1-.94-.9-.43-1.72-.79-2.75-.94h-.48c-.34,0-.62.07-1.1.07-.28.07-.48.14-.83.29-.28.14-.55.29-.76.5-.34.22-.62.5-.9.86-.41.79-.83,1.58-1.31,2.3-.14.14-.76,1.94-.83,2.52-.07.36-.21.79-.34,1.15-.21.36-.28.65-.34,1.01s-.07.72-.14,1.08c-.21.29-.21.72-.27,1.01,0,.36-.07.65-.07.94-.07.22-.07.5-.07.72-.21,1.22-.28,2.45-.28,3.6.07.29.07.5,0,.79-.07.36,0,.72-.07,1.01Z"/><path class="cls-2" d="M141.88,8.99c-.14.22-.28.43-.48.58-.07.43-.34.72-.48,1.08-.14.14-.14.29-.21.43-.07.43-.21.86-.34,1.22-.14.65-.34,1.3-.34,2.02,0,.36-.07.65-.14.94.07.14,0,.29,0,.43v1.94c0,.29.07.5.07.79.14.43.14.86.14,1.3-.07.5-.07.94-.14,1.37v1.73c0,.65.07,1.22.07,1.8,0,1.22.07,2.45.07,3.67-.07,1.15,0,2.38-.07,3.53.07.72.07,1.37,0,2.09v.79c-.07,1.58-.07,2.45-.14,3.74,0,1.08.07,2.16.07,3.24v.29c-.07,1.66,0,3.24,0,4.82v.65c-.14.5-.07,1.08-.07,1.58-.07.43-.07.94-.07,1.44-.07.43-.07.86-.21,1.22,0,.14-.07.29-.07.43.07.72-.28,1.37-.28,2.09-.14.58-.28,1.15-.48,1.73-.14.36-.21.72-.34,1.15-.14.58-.34,1.01-.55,1.58,0,.14-.07.22-.14.29-.28.5-.48,1.08-.83,1.58-.28.65-.76,1.22-1.31,1.73-.41.36-.83.72-1.17,1.08-.48.5-1.03.94-1.65,1.3-.48.36-1.1.65-1.72,1.01l-1.03.43c-.21.07-.48.14-.69.29-.89.36-1.86.72-2.89.79l-.55.14c-.28.14-.55.14-.83.14-.55.07-1.1.07-1.58.07l-.76.14c-.28.07-.62.14-.96.07h-3.3c-.21,0-.48-.07-.69-.14l-.28-.07c-.34,0-.69,0-1.03-.07-.28-.07-.62-.22-.96-.36-.21,0-.41-.07-.69-.07-.48-.07-.89-.22-1.38-.43-.07,0-.21,0-.28-.07-.48-.22-1.1-.36-1.58-.65-.76-.36-1.45-.79-2.2-1.22-.21-.07-.34-.22-.48-.36l-1.65-1.3c-.28-.22-1.17-1.15-1.38-1.51-.21-.36-.48-.72-.76-1.08l-.62-.86c-.41-.43-.69-.94-.83-1.51-.21-1.37-.34-1.44-.62-2.66-.07-.22-.07-1.15-.07-1.37s0-.36-.07-.5c-.21-.65-.21-1.22-.21-1.8,0-1.08-.07-2.16-.07-3.17,0-.65-.14-1.37-.07-2.02-.07-1.08-.07-2.3-.07-3.53,0-.79,0-1.58.07-2.38.07-.43-.07-.72-.07-1.15,0-.5-.07-1.01,0-1.51v-.72c-.07-.79-.14-1.58,0-2.38,0-.5.07-.94.07-1.37-.14-.43,0-.94,0-1.37-.07-.72,0-1.3,0-2.02,0-1.01,0-2.02-.07-3.02.07-1.08.07-2.23.07-3.31-.07-.29-.07-.5,0-.79.14-.65.07-1.3,0-2.02,0-.14-.07-.36-.07-.58,0-.29-.07-.58-.07-.94.07-1.01,0-2.09,0-3.1-.07-.58-.14-1.15-.14-1.73,0-.43-.07-.86-.14-1.3l-.14-.5c0-.5-.14-.94-.34-1.3-.41-.94-.83-1.73-1.38-2.52-.14-.22-.07-.43.14-.5.07-.14.21-.22.34-.14.48.07.9.14,1.31.14.48-.07.96,0,1.45-.14.34,0,.69,0,.96.07.96.14,1.86.07,2.75.14,1.24-.07,2.27,0,3.44,0,.48.07,1.58.07,2,0,1.1,0,2.13-.07,3.17,0,.62,0,1.17-.07,1.72-.14.14-.07.34.07.34.22q.07.07.07.14c-.34.65-.76,1.22-1.17,1.8-.14.36-.21.72-.34,1.08-.14.29-.34,1.15-.48,1.37l-.07.29c0,.43-.21.79-.21,1.22,0,.65.07,1.3.07,1.94-.07,1.22,0,2.38-.07,3.6,0,.43,0,.94-.07,1.37,0,.43,0,.72-.07,1.15l-.14,3.6v1.94c0,.43,0,.94-.07,1.37v1.08c-.07.5-.07,1.08.07,1.73v.58c0,.5-.07,1.01-.07,1.51v.86c-.07.58,0,1.15.07,1.73,0,.29,0,.58-.07.86,0,.72,0,1.44.07,2.09l.21,1.15c-.07.36-.21.79-.21,1.22-.07.14-.07.36-.07.58.07.58,0,1.08.07,1.66v.43c-.07,1.01-.07,2.02-.07,3.02.07.79.21,1.51.41,2.3.21.5.28.94.41,1.44,0,.29.14.58.41.79.41.58.89,1.08,1.45,1.51.07.07.14.14.28.22.34.22.69.43,1.1.58.21.14,1.1.22,1.38.36.34.07.76.07,1.1.07.21-.07.41-.14.55-.29,1.93-.65,2.55-1.37,3.17-2.16.14-.14.21-.36.28-.5l.34-.65c.21-.36.41-.79.48-1.22.21-.5.28-1.01.28-1.44,0-.29.07-.58,0-.86,0-.29,0-.5.07-.79.07-.22.07-.5.07-.72,0-.58,0-1.08.14-1.66,0-.5-.07-1.01-.07-1.51,0-2.02-.07-3.96-.07-5.98,0-.36.07-.72.07-1.08-.07-.5-.14-1.08-.07-1.66v-2.09c.07-.58,0-1.08,0-1.66,0-.94.07-1.94.14-2.95.07-.07.07-.22.07-.29.14-.94.07-1.87.14-2.81.07-1.15-.07-2.23,0-3.31v-4.03c-.07-.65-.07-1.3,0-1.94,0-.14-.07-.36-.14-.5-.14-.43-.14-.94-.14-1.44l-.21-1.15c-.14-.29-.14-.65-.28-1.01-.28-.86-.69-1.66-1.31-2.3,0-.07-.07-.22-.14-.29-.07-.07-.07-.22-.07-.29.07-.07.14-.14.28-.14.62-.07,1.31-.07,2-.07.69.07,1.31.07,2,.07h2.2l.69.07c.21.07.48.14.69.14,1.72,0,3.03.07,4.75.07.48,0,.96,0,1.38-.22h.34c.62-.07,1.31-.07,2-.07.07,0,.14,0,.28.07.14.07.14.29.07.36Z"/><path class="cls-2" d="M162.67,32.54c0,.72.14,1.94.14,3.38,0,.36-.07.79-.14,1.22,0,.22.07.43.07.65-.07.94-.07,1.94-.07,2.81,0,.29,0,.43.07.58.14.5.14,1.01.07,1.51v.36c0,1.66-.07,3.17,0,4.75v.86c0,2.45.07,4.9.14,7.34,0,.5.07,1.15.14,1.58.07.36.07.79.14,1.15,0,.22.07.5.14.86.07.29.07.58.14.79.14,1.01.34,2.02.55,2.66.21.58.48,1.15.83,1.66.14.36.28.65.62.94.21.22.34.36.41.65.07.14.07.36,0,.43-.07.07-.14.07-.28.14h-.28c-.96-.07-2.06,0-3.1,0-.96.07-2.13-.14-3.1-.07-.69,0-1.86.07-2.13,0-.28-.07-3.79,0-4.13,0-1.38.07-2.68,0-4.06,0-.48,0-1.03,0-1.58-.07h-.21c-.14,0-.21-.07-.28-.14,0-.07,0-.22.07-.29.07-.07.76-.58.96-.94.21-.14.34-.29.41-.58.14-.22.34-.36.48-.58,0-.07.07-.07.07-.14q.41-.94.69-2.09c.14-.43.07-.94.21-1.3.07-.14.07-.36.14-.58,0-.14,0-.36.07-.58.14-.43.21-1.01.14-1.58,0-1.01.07-2.02,0-3.17-.07-.36,0-.79.07-1.15.07-.14.07-.29,0-.5,0-.22-.07-.43-.07-.72.07-.22,0-.5,0-.72.07-.29,0-.5,0-.79.14-.79.07-1.58.07-2.38.07-.79.07-1.51.07-2.23-.07-.72-.07-1.37,0-2.02.07-.29.14-.65.14-1.01-.07-1.51,0-3.02-.07-4.54v-1.37c0-.43.07-.86.14-1.37,0-.36.07-.79.07-1.15-.07-1.44-.07-2.95-.14-4.39v-1.51c0-.79-.07-1.58-.14-2.38v-.5c.14-1.01.07-2.02,0-2.95,0-1.15,0-2.23.07-3.38v-1.01c-.07-.94-.07-1.8-.14-2.74,0-.22,0-.5-.07-.72-.07-.14-.14-.29-.14-.43,0-.65-.21-1.3-.28-1.94-.21-1.08-.62-2.02-1.24-2.88-.07-.14-.21-.36-.41-.58,0-.07-.07-.14-.07-.29-.07-.14.07-.36.21-.43l.48-.22c.41.07.89.14,1.31.14h.83c.28.07.69.07.96.07.55-.07,1.03-.07,1.45.07.14.07.21,0,.28,0h.69c.34.07,2.2-.07,2.55-.07.41-.07.83-.07,1.17-.07.14,0,1.31.29,1.38.22.55-.14,1.17-.07,1.72-.14.28,0,.48,0,.76.07.28.07.62,0,.96.07.07,0,.21,0,.34-.07.34-.07.83-.07,1.1-.07.76-.07,1.93-.07,2.06.07.07.07.07.14.07.29-.07.14-.14.29-.14.36-.21.29-.48.72-.55,1.08v1.3c-.07.14-.07.29,0,.43.07.22.07.5.14.72,0,.14,0,.29.07.43.14.65.28,1.37.55,1.87.34,1.01.76,1.87,1.24,2.74.14.14.21.36.28.5.07.36.07.58.21.79.07.14.27.36.34.58.14.5.21.94.48,1.44.28.43.41.86.62,1.22.21.58.41,1.01.62,1.37l.83,2.09c.21.29.28.58.41.94l.41.94c.07.5.28.79.41,1.22.28.65.48,1.08.76,1.58.21.43.34.72.48,1.08.28.79.55,1.44.96,2.16.69,1.44,1.24,2.88,1.86,4.25.76,1.51,1.03,2.66,2.07,4.61.14-.86,0-3.1,0-3.96,0-.36,0-.65-.07-1.01-.07-.29-.07-.58-.07-.94v-1.66c-.07-.58,0-1.01-.07-1.51q-.07-.94,0-1.87v-5.62c0-.36.07-.65.14-.94,0-.43.07-.86-.07-1.3-.07-.36-.07-.65,0-1.08.07-.29.07-.65.14-.86-.07-.36-.07-.5-.07-.72-.14-.43-.14-.79-.14-1.3,0-1.22-.07-2.38-.07-3.6,0-.65,0-1.15-.14-1.8v-.29c-.07-.65-.28-1.37-.41-1.94-.07-.65-.28-1.3-.62-1.8-.34-.29-.55-.65-.96-.94-.14-.14-.21-.29-.28-.5-.07-.22.07-.5.21-.58h.83c1.17.29,2.34.07,3.51.07.34,0,.69.07,1.03.07h1.31c.34,0,.76,0,1.03-.07,1.79,0,2.55-.07,3.23,0,.21.07.48,0,.62,0,.83,0,1.72.07,2.55,0,.41-.07.83,0,1.31,0,.48-.07.89-.07,1.45-.22.21-.07.48,0,.69.22.07.07.07.29.07.36-.07.07-.07.14-.07.14-.28.22-.48.22-.62.58l-.89,2.45c-.14.58-.41,1.08-.41,1.66,0,.43-.14.86-.14,1.3-.07.65-.07,1.3-.07,1.94,0,.79-.07,1.51-.21,2.23-.07.22-.07.43-.07.65.07.65,0,1.3,0,1.94v1.8c0,.65-.07,1.3-.07,1.94v.5c-.07.22-.14.5-.14.72-.07.72-.07,1.51-.07,2.23v8.5c0,.36-.07.65-.07,1.01-.07.14-.07.29,0,.43.07.72.07,1.44.07,2.16l-.07.72c-.14.43-.14.94-.07,1.37.14.43.14.86.14,1.37-.07.79,0,1.58,0,2.38,0,.29,0,.5-.07.79,0,.22-.07.43-.07.72l.07.72c.07.36.07.72.07,1.08v9.79c.07.79.07,1.58,0,2.45v.43c.07.79.07,1.58,0,2.38v1.15c0,.22-.14.29-.48.29-.14-.07-.21.07-.34,0s-.28,0-.41,0h-.83c-.21,0-.48,0-.69-.07-.28,0-.48,0-.69.07-.28.07-.62,0-.9,0-.48-.14-.96-.14-2.55-.07h-.27c-.21-.07-.41-.07-.76,0-.21.07-.48.07-.62.07-.83.07-.83,0-.28,0-.76,0-1.17-.14-1.86-.14l-.96.14c-.28,0-.76.14-.96.07-.28,0-.96-2.02-2-4.25-1.1-2.16-2-4.39-2.34-5.26-.14-.36-.28-.79-.48-1.08-.34-.58-.69-1.22-.83-1.8-.48-1.01-.9-2.02-1.38-2.95-.21-.29-.34-.5-.41-.79-.07-.36-.07-.58-.21-.79-.28-.58-.48-1.15-.76-1.66,0-.43-.14-.72-.41-1.01-.14-.29-.34-.72-.48-1.08-.21-.79-.55-1.44-.83-2.16-.21-.43-.34-.94-.62-1.3-.07-.07-.07-.14-.07-.22-.28-.79-.62-1.37-1.03-2.09l-.41-.94c-.14-.5-.34-.86-.55-1.22-.48-1.15-.76-2.09-1.38-3.24-.07-.14-.41-1.22-.48-1.22-.21-.58-.34-1.08-.48-1.37l-.21.07Z"/><path class="cls-2" d="M240.03,36.57c.07.22.07.5,0,.72-.14.86-.14,1.73-.14,2.52-.07.14,0,.36-.07.58-.14.65-.21,1.3-.28,1.94-.07.58-.28,1.15-.28,1.8,0,.07-.07.14-.07.29-.21.94-.48,1.8-.55,2.81-.07.36-.21.72-.21,1.15-.07.43-.28.79-.34,1.15l-.27,1.15c-.07.36-.28.58-.28.94s-.14.72-.21,1.08c-.14.43-.34.94-.55,1.37-.07.29-.21.58-.41.79-.21.36-.41.72-.62,1.15-.48.94-1.03,1.87-1.65,2.81-.28.43-.62.86-1.03,1.3-.76.86-1.58,1.73-2.41,2.52-.69.58-1.38,1.01-2.13,1.44-.69.43-1.38.79-2,1.22-.07,0-.14,0-.14.07-.48.07-.89.29-1.38.36-1.1.22-2.06.43-3.03.79-.76.14-1.51.14-2.2.29-.41-.14-.76.07-1.17.07-.76,0-1.51,0-2.27.07h-1.45c-.83.07-1.65,0-2.48.07l-2.75-.07c-.14,0-.28,0-.41-.07-.28-.07-.62-.07-.9,0-.83.07-1.72-.07-2.55,0-.48-.07-.96,0-1.45,0h-2.06c-.34,0-.76-.07-1.1-.14-.28-.07-.62,0-.89.07-.14.07-.28.07-.41.07-.14-.07-.34-.29-.28-.43.07-.14.07-.22.14-.29.28-.5.55-.94.76-1.44.21-.5.34-1.01.41-1.51.07-.29.21-.65.34-1.01s.21-.72.21-1.15c0-.86.07-1.73,0-2.52,0-.36,0-.65.14-.94s.21-.65.21-1.01c-.14-.58-.07-1.22,0-1.73.07-.43.07-.86,0-1.37-.07-.14-.07-.36,0-.58.07-.22,0-.5,0-.72.07-1.08.14-2.16.14-3.24-.07-.94-.07-1.8-.07-2.74,0-.43,0-.79.07-1.22.14-.65.14-1.3.07-1.94-.07-.5,0-1.01,0-1.51s0-1.08-.07-1.66c0-.22-.07-.5-.14-.72-.07-.29-.07-.65,0-.94.07-.07.07-.14.07-.22,0-.36-.14-.79-.07-1.15.07-.36.07-.72,0-1.08,0-.14,0-.29-.07-.43-.14-.79-.07-1.58,0-2.38.07-.65-.07-1.3-.07-1.94,0-.29,0-.5.07-.79,0-.07.07-.22,0-.36-.07-.43-.14-.79,0-1.22v-1.87c0-1.01.07-2.02.07-3.02-.07-.65-.07-1.37-.14-2.09,0-.79,0-1.58-.07-2.38-.07-.36-.07-.65-.14-.94-.07-.29-.07-.58,0-.86v-1.37l-.07-.72c-.07-.22-.14-.43-.14-.65s-.07-.5-.14-.79l-.14-.58c0-.65-.21-1.22-.48-1.73l-.69-1.37c-.14-.29-.28-.5-.48-.72-.14-.14-.21-.36-.14-.58.07-.14.21-.36.41-.36.41-.07.83-.07,1.31-.07,1.58,0,3.24.07,4.89.07h.55c1.38,0,3.65,0,5.51-.07.96,0,2,0,3.03.07.96,0,2,0,3.03-.07.96-.07,2,0,2.96.07.62.14,1.24.22,1.86.36.55.14,1.17.14,1.72.36.76.14,1.45.43,2.2.72l1.03.43c.62.36,1.17.72,1.72,1.15.48.36,1.03.79,1.45,1.22.28.14.48.29.76.5.21.14.41.36.62.58.48.36.9.72,1.17,1.22.69.79,1.24,1.66,1.86,2.52.62.94,1.1,2.02,1.65,3.02l.21.72c.28.65.48,1.3.76,1.94.21.72.48,1.44.55,2.16l.21.58c.14.58.34,1.08.34,1.73,0,.14.07.29.07.43.14.36.21.79.21,1.15.07.14.07.29.07.43.28.65.28,1.3.28,2.02,0,.5.07.94.14,1.37.14.58.14,1.22.14,1.8,0,.5,0,1.01.14,1.51ZM226.95,38.8c0-.36-.07-.72-.07-1.08-.07-.36-.14-.79-.07-1.15.07-1.15-.14-2.3-.21-3.46,0-.22-.07-.43-.07-.65-.07-.14-.07-.29-.14-.43,0-.36-.07-.79-.07-1.15-.07-.43-.34-.72-.41-1.15,0-.36-.07-.65-.21-1.01-.14-.65-.41-1.3-.55-1.87-.28-.79-.55-1.66-1.1-2.45-.41-.79-1.03-1.51-1.79-2.09-.34-.29-.69-.58-1.17-.86-.62-.22-1.1-.43-1.72-.58-.62-.22-1.31-.43-1.93-.5h-.48c-.55-.22-1.1-.22-1.58-.07-.21,0-.41.14-.41.29-.07.36-.28.65-.07,1.08.07.14,0,.36,0,.58,0,.43-.14.86-.14,1.3,0,.36-.07.72-.07,1.15.07.43.07.86.07,1.37-.07.43,0,.79-.07,1.22-.07.5.07.94,0,1.37,0,.22.07.43,0,.65,0,.14,0,.29-.07.43,0,.65,0,1.44-.07,2.16.07,1.22.07,2.45.07,3.6,0,.58,0,1.15-.14,1.66v1.51c.07.36.07.86,0,1.3,0,.72.07,1.51.21,2.23.07.14.07.29.07.43-.07.65-.07,1.3,0,2.02,0,.36,0,.79-.07,1.15-.07.29-.07.5-.07.72-.07,1.51-.07,2.95,0,4.39v.36c.07.86,0,1.66.07,2.45-.07.5,0,1.01,0,1.44,0,.14.07.29.21.36,0,.14.83.29,1.1.22.41-.07.83-.14,1.31-.14.48-.07,1.03-.29,1.58-.29.55-.07,1.03-.22,1.79-.29l1.17-.79c.48-.29.89-.58,1.24-1.08.07-.14.34-.29.55-.36.14-.14.28-.29.34-.5l.48-.72c.07-.22.21-.29.21-.5.14-.5.41-.94.62-1.37.07-.22.14-.43.14-.65-.07-.14-.07-.29,0-.43.28-.58.41-1.22.62-1.8.34-.72.48-1.44.55-2.23.14-1.01.21-2.02.21-2.95.07-.43.07-.86.14-1.22.07-.58.07-1.08,0-1.58Z"/><path class="cls-1" d="M32.56,97.41c-.02.46-.11.89-.21,1.32-.02.22-.07.41-.11.6-.11.5-.32.96-.67,1.39-.07.07-.11.17-.18.24-.18.19-.34.43-.57.53-.09.05-.16.12-.25.19-.32.26-.67.48-1.1.55-.32.07-.64.17-.94.26-.14.05-.28.07-.41.07-.53,0-1.01.17-1.51.19-.39.02-.8.02-1.19.07-.28-.07-.53-.1-.8-.02-.11.02-.23,0-.32,0h-.99c-.41,0-.8-.05-1.19-.05-.34.02-.69-.02-1.01.02-.85-.05-1.58-.02-2.25-.02-.3,0-.6,0-.92-.02-.14,0-.28-.02-.44-.02-.25,0-.53,0-.8-.02-.32,0-.9,0-1.19.02-.32,0-.64.02-.99.02-.21.02-.44.05-.64.05-.39,0-.83-.02-1.22-.02-.57.02-1.17.02-1.74.05h-.73c-.39,0-.73.02-1.1-.05h-.28c-.34,0-.71,0-1.06-.07-.16-.02-.32,0-.48,0l-.92.02v-1.03h-.02s.02-.05.02-.07c-.02-.24-.05-.5-.05-.74q-.02-.17-.07-.29s-.02-.29.11-.6c.07-.02.16-.05.23-.05.41.02.83.05,1.22,0,.18-.02.37.02.57-.02.16,0,.32.02.48-.02.02-.05.05-.1.05-.12.05-.41.11-.94.14-1.42v-2.59c0-.6-.02-1.2-.05-1.78,0-.96.02-1.92.02-2.86-.02-.62-.05-1.27-.02-1.92,0-.74.02-1.49.02-2.23,0-.22-.02-.41-.02-.62,0-.07-.05-.14-.05-.22-.09-.05-.87-.05-1.42-.05-.16,0-.3.02-.44.02-.23.02-.48.02-.73.05-.11,0-.3-.07-.37-.14-.05-.48-.07-.94-.11-1.37-.02-.22-.02-.43-.02-.65,0-.14.07-.26.16-.38.07-.12.14-.14.23-.19.05,0,.11.02.21.02.05,0,.21.02.25,0,.55-.05.96.02,1.56,0,.6-.07,1.22-.02,1.81-.05.48,0,.99.02,1.47,0h.21c.94.02,1.86,0,2.78-.02h.3c.55.02,1.38-.05,1.93-.02.23,0,.46,0,.69.02.85.02,1.72-.02,2.57.02,1.26.05,2.29.05,3.3.02.37-.02.78-.02,1.15-.02h.41c.18,0,.37-.02.57-.05.32.02.64,0,.96,0,.23,0,.48.02.76.02.64.02,1.29.12,1.95.29.16.02.32.12.48.19.55.29.94.72,1.26,1.2.16.24.28.5.34.77.07.22.09.46.09.67-.02.58-.05,1.15-.18,1.7-.05.1-.07.22-.11.34-.21.53-.41,1.06-.62,1.42-.05.07-.07.14-.11.19-.18.43-.39.79-.57,1.2-.05.1-.09.22-.14.38.05,0,.07.02.11.05.28.14.55.29.83.46.44.22.8.53,1.08.98.23.38.46.77.62,1.18.09.22.14.67.21.94.18.77.21,1.42.18,2.09ZM29.48,95.97c-.02-.19-.07-.48-.23-.67-.09-.12-.16-.24-.23-.48-.23-.34-.48-.58-.9-.65l-.99-.14c-.37-.05-.71-.12-1.06-.12-.39.02-.8.02-1.19-.02-.09,0-.18.02-.3.02-.16.02-.34.1-.5.05-.25-.05-.53-.02-.8-.02-.28-.02-.55,0-.85-.02-.41,0-.83-.02-1.22,0-.5.02-1.26,0-1.77,0-.14-.02-.3-.05-.44-.02-.28.1-.53.07-.78.05-.48-.05-.96-.1-1.42-.05h-.41c-.73-.05-1.26,0-1.74.07-.21.02-.41-.05-.62-.05-.18.02-.34.02-.5.02s-.32.05-.48.05c-.28,0-.55-.02-.85-.02-.21,0-.25.22-.25.43v.94c0,.5-.02,1.1-.05,1.61,0,.46,0,1.3-.02,1.78-.02.34-.02.79.09,1.25.07.02.11.02.16.02l.83.07c.9.07,1.81.02,2.71.02h2.09c.44.02.85,0,1.29,0,.57.02,1.38-.07,1.93,0h.5c.53.05,1.06.07,1.61.1h.44c.18-.05.37-.05.55-.07.23,0,.44-.02.67-.02l.64-.07h.87l.87-.14c.34-.07.69-.17,1.01-.22.18-.05.34-.12.48-.26.3-.38.57-.5.78-1.34.18-.72.14-1.39.09-2.06ZM12.06,91c.18.02.34.02.53.02.25.02.5.1.76.07,1.29-.02,1.08.05,2.39-.05.18-.02,2.11.07,2.29.05.23-.02,1.95-.02,2.2,0,.55,0,2.43.02,3.21,0,1.45,0,3.26-.02,3.08-.02.07-.1.11-.14.18-.22.28-.48.55-.98.85-1.34.14-.26.28-.55.37-.86.14-.41.25-.82.21-1.27-.02-.55-.41-1.18-1.45-1.18l-1.47-.02c-.18,0-1.56.02-1.74,0-.39-.07-.8-.07-1.24-.07-.21,0-.44.05-.64.02h-1.74c-.25-.02-.53-.02-.83.02-.18.02-.37.02-.55-.02-.14-.02-.32-.05-.46-.02-.3.05-.6.05-.87,0-.25-.02-.5.07-.76-.02-.07-.02-.11.02-.18.02-.32.05-.41.05-.46.05-.16-.05-.32-.1-.48-.07-.3,0-.6.02-.92.02-.46,0-.9,0-1.33-.05-.34-.02-.64,0-.94.07-.02.12-.05.19-.05.29.05.29,0,.53-.02.82,0,.46-.02.91,0,1.39.05.48.05.96-.05,1.75-.02.22,0,.46.11.62Z"/><path class="cls-1" d="M60.59,94.77c0,.29-.09.62,0,.96v.07c-.09.41-.05.82-.05,1.22-.02.48-.02,1.01-.23,1.46,0,.05-.02.1-.02.14,0,.36-.14.7-.25,1.03-.28.58-.67,1.06-1.1,1.51-.28.29-.6.53-.92.72-.37.24-.71.43-1.15.5l-1.12.22c-.48.1-.94.29-1.42.14h-.11c-.41,0-.85,0-1.29.07-.07,0-.14,0-.21-.02-.64-.05-1.9,0-2.39,0l-1.77-.02c-.25,0-.48.02-.57.02v-.02l-.67.02c-1.4.05-2.66-.1-3.3-.05-.07.02-.14.02-.21.02-.44-.07-.87,0-1.29,0h-.11c-.71,0-.94-.02-1.42-.14-.34-.07-.73-.17-1.12-.24-.44-.07-.78-.26-1.15-.5-.32-.19-.57-.5-.92-.72-.71-.43-.83-.94-1.1-1.51-.11-.34-.25-.67-.25-1.03,0-.05-.02-.1-.02-.14-.21-.46-.21-.98-.23-1.46,0-.41.05-.82-.05-1.22v-.07c.09-.34,0-.67,0-.96.02-.58-.07-1.13-.02-1.68-.05-.55.05-1.1.02-1.68,0-.29.09-.62,0-.96v-.07c.09-.41.05-.82.05-1.22.02-.48.02-1.01.23-1.46,0-.05.02-.1.02-.14,0-.36.14-.7.25-1.03.28-.58.67-1.06,1.1-1.51.28-.29.6-.53.92-.72.37-.24.71-.43,1.15-.5.39-.07.78-.17,1.12-.24.48-.12.94-.29,1.42-.14h.11c.41,0,.85.07,1.29,0,.07,0,.14,0,.21.02.64.05,1.9-.02,2.62,0l1.08.02c.25,0,.48-.02.57-.02h.69v.02l.67-.02c.71-.02,2.43.05,3.08,0,.07-.02.14-.02.21-.02.44.07.87,0,1.29,0h.11c.71,0,.94.02,1.42.14.34.07.73.17,1.12.24.44.07.78.26,1.15.5.32.19.57.5.92.72.71.43.83.94,1.1,1.51.11.34.25.67.25,1.03,0,.05.02.1.02.14.21.46.21.98.23,1.46,0,.41-.05.82.05,1.22v.07c-.09.34,0,.67,0,.96-.02.58.07,1.13.02,1.68.05.55-.05,1.1-.02,1.68ZM57.59,92.83v-.5c0-.53-.05-.1-.05-.6v-.74c0-.24-.02-.48-.02-.74.07-.55-.09-1.06-.16-1.61-.07-.26-.21-.5-.32-.74-.09-.22-.21-.38-.37-.53-.14-.12-.25-.22-.41-.31-.18-.17-.39-.31-.57-.46-.11-.05-.21-.12-.3-.1-.23.05-.41-.05-.62-.07-.67-.07-1.58-.14-2.27-.14h-3.56v.02l-.55-.02c-.09.02-.18.02-.3,0h-3.83c-.69,0-1.35.07-2.02.14-.21.02-.57.12-.8.07-.11-.02-.18.05-.3.1-.21.14-.41.29-.6.46-.16.1-.28.19-.39.31-.16.17-.3.31-.39.53-.14.24-.25.48-.32.74-.07.55-.25,1.06-.18,1.61,0,.26-.02.5-.02.74v.74c0,.5-.07.07-.07.6s.02.55.02,1.03h-.02v.5c0,.53.05.1.05.6v.74c0,.24.02.48.02.74-.07.55.09,1.06.16,1.61.07.26.21.5.32.74.09.22.21.38.37.53.14.12.25.22.41.31.18.17.39.31.57.46.11.05.21.12.3.1.23-.05.41.05.62.07.67.07,1.58.14,2.27.14h3.1v-.02l1.24.02c.09-.02.18-.02.3,0h3.6c.69,0,1.35-.07,2.02-.14.21-.02.57-.12.8-.07.11.02.18-.05.3-.1.21-.14.41-.29.6-.46.16-.1.28-.19.39-.31.16-.17.3-.31.39-.53.14-.24.25-.48.32-.74.07-.55.25-1.06.18-1.61,0-.26.02-.5.02-.74v-.74c0-.5.07-.07.07-.6s-.02-.55-.02-1.03h.02Z"/><path class="cls-1" d="M89.02,94.77c0,.29-.09.62,0,.96v.07c-.09.41-.05.82-.05,1.22-.02.48-.02,1.01-.23,1.46,0,.05-.02.1-.02.14,0,.36-.14.7-.25,1.03-.28.58-.67,1.06-1.1,1.51-.28.29-.6.53-.92.72-.37.24-.71.43-1.15.5l-1.12.22c-.48.1-.94.29-1.42.14h-.12c-.41,0-.85,0-1.29.07-.07,0-.14,0-.21-.02-.64-.05-1.9,0-2.39,0l-1.77-.02c-.25,0-.48.02-.57.02v-.02l-.67.02c-1.4.05-2.66-.1-3.3-.05-.07.02-.14.02-.21.02-.44-.07-.87,0-1.29,0h-.11c-.71,0-.94-.02-1.42-.14-.34-.07-.73-.17-1.12-.24-.44-.07-.78-.26-1.15-.5-.32-.19-.57-.5-.92-.72-.71-.43-.83-.94-1.1-1.51-.11-.34-.25-.67-.25-1.03,0-.05-.02-.1-.02-.14-.21-.46-.21-.98-.23-1.46,0-.41.05-.82-.05-1.22v-.07c.09-.34,0-.67,0-.96.02-.58-.07-1.13-.02-1.68-.05-.55.05-1.1.02-1.68,0-.29.09-.62,0-.96v-.07c.09-.41.05-.82.05-1.22.02-.48.02-1.01.23-1.46,0-.05.02-.1.02-.14,0-.36.14-.7.25-1.03.28-.58.67-1.06,1.1-1.51.28-.29.6-.53.92-.72.37-.24.71-.43,1.15-.5.39-.07.78-.17,1.12-.24.48-.12.94-.29,1.42-.14h.11c.41,0,.85.07,1.29,0,.07,0,.14,0,.21.02.64.05,1.9-.02,2.62,0l1.08.02c.25,0,.48-.02.57-.02h.69v.02l.67-.02c.71-.02,2.43.05,3.08,0,.07-.02.14-.02.21-.02.44.07.87,0,1.29,0h.12c.71,0,.94.02,1.42.14.34.07.73.17,1.12.24.44.07.78.26,1.15.5.32.19.57.5.92.72.71.43.83.94,1.1,1.51.11.34.25.67.25,1.03,0,.05.02.1.02.14.21.46.21.98.23,1.46,0,.41-.05.82.05,1.22v.07c-.09.34,0,.67,0,.96-.02.58.07,1.13.02,1.68.05.55-.04,1.1-.02,1.68ZM86.01,92.83v-.5c0-.53-.04-.1-.04-.6v-.74c0-.24-.02-.48-.02-.74.07-.55-.09-1.06-.16-1.61-.07-.26-.21-.5-.32-.74-.09-.22-.21-.38-.37-.53-.14-.12-.25-.22-.41-.31-.18-.17-.39-.31-.57-.46-.12-.05-.21-.12-.3-.1-.23.05-.41-.05-.62-.07-.67-.07-1.58-.14-2.27-.14h-3.56v.02l-.55-.02c-.09.02-.18.02-.3,0h-3.83c-.69,0-1.35.07-2.02.14-.21.02-.57.12-.8.07-.11-.02-.18.05-.3.1-.21.14-.41.29-.6.46-.16.1-.28.19-.39.31-.16.17-.3.31-.39.53-.14.24-.25.48-.32.74-.07.55-.25,1.06-.18,1.61,0,.26-.02.5-.02.74v.74c0,.5-.07.07-.07.6s.02.55.02,1.03h-.02v.5c0,.53.05.1.05.6v.74c0,.24.02.48.02.74-.07.55.09,1.06.16,1.61.07.26.21.5.32.74.09.22.21.38.37.53.14.12.25.22.41.31.18.17.39.31.57.46.11.05.21.12.3.1.23-.05.41.05.62.07.67.07,1.58.14,2.27.14h3.1v-.02l1.24.02c.09-.02.18-.02.3,0h3.6c.69,0,1.35-.07,2.02-.14.21-.02.57-.12.8-.07.12.02.18-.05.3-.1.21-.14.41-.29.6-.46.16-.1.28-.19.39-.31.16-.17.3-.31.39-.53.14-.24.25-.48.32-.74.07-.55.25-1.06.18-1.61,0-.26.02-.5.02-.74v-.74c0-.5.07-.07.07-.6s-.02-.55-.02-1.03h.02Z"/><path class="cls-1" d="M120.11,101.45l-.07,1.2s-.02.05-.02.07c-.05,0-.09.05-.21.07-.23.1-.48.02-.73.02-.18-.02-.37-.05-.53,0h-.23c-.14,0-.3-.02-.46.02-.14,0-.3,0-.44-.05-.09-.02-.21.02-.3.02-.41-.02-.8.05-1.22.02-.41,0-.8-.02-1.22-.02h-.3c-.14,0-.23-.1-.3-.22-.07-.1-.12-.22-.16-.34-.21-.43-.41-.86-.64-1.27-.23-.43-.44-.89-.69-1.32-.07-.14-.09-.29-.18-.43-.07-.14-.16-.26-.25-.38,0-.02-.02-.05-.02-.07-.14-.46-.62-1.22-.8-1.66-.18-.48-.44-.89-.67-1.34-.09-.19-.18-.46-.32-.58-.09-.1-.18-.19-.28-.26-.21-.22-.41-.38-.71-.43-.07-.02-.14-.07-.23-.12-.48-.02-.99-.02-1.49-.02h-1.12c-.3,0-.62-.05-.92-.02-.25,0-.5,0-.73-.05-.11-.02-.44,0-.53.02-.02,0-.07.02-.11.02-.21-.07-.46,0-.71-.02-1.1,0-1.49-.02-1.19.02-.3.02-.6,0-.92,0-.41,0-.85-.02-1.29-.02h-.14c-.71,0-1.42.02-2.13.02-.07,0-.14.02-.21.05-.04.02-.07.07-.11.12,0,.02-.02.05-.02.07-.09.82-.16,1.66-.12,2.47-.05.46,0,.89,0,1.34-.02.46.02,1.03,0,1.46-.02.05,0,.1,0,.17s.12.19.18.22l.37.07h.16c.48-.02,1.42-.02,1.91-.05h.44c.11-.02.21-.05.3-.07.14.05.23.12.28.24.02.1.07.22.09.29v.94c.02.19-.05.36-.09.5v.36s-.02.1-.02.14c-.02.12-.14.19-.23.19h-.07c-.18,0-.32-.12-.5-.1-.16.02-.32,0-.46-.02-.18,0-.83,0-.99-.02-.16,0-.3,0-.46.05-.48,0-.96-.05-1.45.02-.09,0-.18-.05-.3-.02-.21,0-.39-.02-.6-.05-.18,0-.34.07-.53.07-.34,0-.71.02-1.06-.02-.25,0-.5-.05-.76.02-.04.02-.76.05-.8.05-.32,0-.62-.02-.92-.02-.05,0-.09-.02-.14-.05-.09,0-.18-.12-.21-.19-.02-.26.02-.53,0-.79-.02-.29-.02-.55-.02-.82,0-.14.05-.26.12-.36.02-.02.04-.05.04-.07.02-.02.02-.05.05-.1.04-.05.11-.1.18-.1.37,0,.71-.02,1.74-.05h.6s.09-.02.14-.07c0-.07-.02-.17,0-.24.09-.22.09-.46.09-.89,0-.86-.02-1.75,0-2.62.02-.43.02-.84.02-1.27-.02-.38,0-.79.02-1.18.02-.1.02-.17.02-.24-.05-.26.02-.53-.02-.79-.02-.34-.04-.7.02-1.03v-.14c-.05-.22-.05-.43-.05-.65.02-.24,0-.46,0-.7,0-.12,0-.22.02-.31.05-.17.02-.31,0-.48-.02-.26-.02-.53.05-.77l-.05-.34c0-.1-.02-.22.02-.31.07-.31.07-.62,0-.94-.02-.14-.05-.31-.05-.48.02-.26-.02-.5-.05-.77-.05-.07-.12-.12-.18-.12-.39-.02-1.45,0-1.84.07-.16.02-.34.02-.53,0-.05,0-.09-.02-.14-.05-.09-.02-.16-.12-.18-.22-.02-.07-.02-.17-.04-.24,0-.29-.02-.58-.05-.86-.02-.22-.02-.43.02-.65.02-.12-.02-.24.02-.38,0-.05.02-.1.07-.12.16-.07.3-.12.44-.1.46.02,1.61,0,2.07.02.25.02.5.02.76.07.18.05.39.05.6.05.16,0,.3-.05.46-.05.14,0,.3.05.44.05h.39c.41-.02,1.54.02,1.97-.05.14-.02.3,0,.44.02.23,0,.46,0,.69-.05h.14c.3.02.62-.05.92-.02.04,0,.14.07.14.14.02.05.05.1.02.14-.05.41,0,.79,0,1.2-.02.22.02.41.05.62,0,.1-.07.22-.14.26-.07.05-.14.1-.21.12-.04,0-.09.02-.14.02-.48,0-.96.14-1.45.12-.28-.02-1.24-.02-1.51-.1-.07,0-.21.1-.23.19,0,.05-.02.1-.02.14-.02.6-.05,1.22,0,1.82v.14c-.02.26,0,.53,0,.79.02.12.02.22.02.31.02.31.05.6.05.89l-.02,1.01s.02.1.02.14c0,.07.12.17.16.17.07,0,.14.02.23.02.57-.02,1.15,0,1.72,0,.83.02,1.63.02,2.43.02h.53c.11,0,.21-.02.3.02.02,0,.05.02.07.02.32-.02.64-.05.96-.05h.37c.69-.02,1.15-.02,1.61-.02s.89-.05,1.35-.02c.28.02.55-.05.83-.05.07,0,.16-.05.18-.12.37-.53.64-1.13.99-1.85.18-.38.41-.77.62-1.18.05-.05.07-.12.11-.19.28-.31.44-.7.64-1.08.09-.17.16-.38.23-.58.07-.19.23-.34.28-.55.02-.07,0-.12-.07-.14s-.14,0-.21,0c-.25.02-.51.05-.76.05-.23.02-.46-.02-.69-.02h-.23c-.09,0-.23-.14-.23-.26-.02-.12-.05-.22-.02-.31.07-.31.07-.62.02-.96v-.1c.05-.22.07-.43.11-.67.02-.17.21-.31.39-.31.07,0,.16-.02.23,0,.21.07.44.02.67.1.32,0,.67.02.99.02.37,0,.76.02,1.12.02.28,0,.55,0,.85-.02.32-.02.64,0,.96,0,.18,0,.37.07.55.07.14-.02.3-.02.44-.02s.25-.02.39-.02c.09-.02.18-.02.3,0,.14.02.3.02.44,0,.16-.05.3-.05.46-.07.25-.02.5.1.76.02.28-.05.51,0,.71-.02.05,0,.11,0,.16.02.04,0,.18.17.18.24s0,.14-.02.17c0,.22-.02.46,0,.7,0,.14.02.29.09.41-.07.07-.05.14-.02.22-.04.17.02.38,0,.55,0,.05-.09.17-.14.17-.02.02-.05.02-.07.02-.41.02-.78.05-1.19.05-.18,0-.39.12-.6,0-.09,0-.18-.02-.28,0-.12,0-.25.02-.37-.02-.14-.02-.25-.02-.39,0-.07,0-.14.02-.23,0-.28-.07-.55-.02-.83-.05-.07,0-.14.05-.18.1-.09.07-.16.17-.21.24l-.18.36c-.12.24-.21.46-.34.67l-.41.77c-.11.22-.25.46-.37.67-.23.43-.44.84-.67,1.25l-.14.29c-.12.17-.21.36-.32.53-.16.24-.28.5-.39.77-.05.12,0,.29.11.36.09.05.18.1.25.17.16.1.32.14.46.26.14.14.25.26.37.41l.16.14c.14.24.28.46.39.7.14.19.23.41.32.62.14.36.32.72.46,1.08.16.36.34.72.51,1.06.23.48.69,1.27.89,1.75,0,.02.02.05.02.07.28.41.44.77.67,1.2.11.24.23.48.37.72.02.05.09.1.18.1h.46c.14,0,.3,0,.46.02.28.07.53.07.8,0,.09,0,.16.02.23.02.07.02.16.05.25.05l.5-.07c.16-.02.34-.02.53-.05.09,0,.21.07.23.17.02.05.04.1.04.14.02.29.07.74.07,1.03ZM102.46,91.77h.16-.16Z"/><path class="cls-1" d="M150.13,102.81c-.64-.05-1.22,0-1.93,0l-1.77-.02c-.25,0-.48.02-.57.02h-.69v-.02l-.67.02c-.71.02-1.51-.1-2.16-.05-.05.02-.07.02-.21.02-.44-.07-.87,0-1.29,0h-.11c-.71-.02-.94-.02-1.42-.14-.34-.07-.73-.17-1.12-.24-.37-.05-.69-.19-1.15-.5-.32-.19-.57-.5-.92-.72-.71-.43-.83-.94-1.1-1.51-.12-.34-.25-.67-.25-1.03,0-.05-.02-.1-.02-.14-.21-.46-.21-.98-.23-1.46,0-.41.05-.82-.04-1.22v-.07c.09-.34,0-.67,0-.96.02-.58-.07-1.13-.02-1.68-.05-.55.05-1.1.02-1.68,0-.29.09-.62,0-.96v-.07c.09-.41.04-.82.04-1.22.02-.48.02-1.01.23-1.46,0-.05.02-.1.02-.14,0-.36.14-.7.25-1.03.23-.48.55-.94,1.1-1.51.23-.24.53-.48.92-.72.46-.31.78-.46,1.15-.5.39-.07.78-.17,1.12-.24.48-.12.94-.29,1.42-.14h.11c.41,0,.85.07,1.29,0,.14,0,.16,0,.21.02.64.05.3,0,1.01,0l2.23.02c.25,0,.48-.02.57-.02h.69v.02l.67-.02c.71-.02,1.97.05,2.62,0,.07-.02.14-.02.21-.02.44.07.87,0,1.29,0h.12c.71,0,.94.02,1.42.14.46.1.8.24,1.08.41.14.1.28.17.46.31l.05.02c.07.05.18.14.3.19l.14.1h.02s.07-.02.07-.07c.02-.22,0-.55,0-.74,0-.14,0-.17.02-.22.05-.07.07-.1.09-.1.28-.07.48-.1.67-.1.16,0,.34-.02.53.05.09.02.21.05.32.05.25,0,.48.05.73,0,.09,0,.23.12.23.22.07.43.12.89.12,1.39v1.32c-.02.41-.05.79-.05,1.2-.02.22,0,.41,0,.62v.65c0,.12.02.22.02.31,0,.41.02,1.56-.12,1.56l-1.4.02-.46-.02h-.02c-.18.02-.23.02-.3-.02-.53,0-.73-.05-.73-.19.07-.55-.09-1.32-.16-1.87-.07-.26-.21-.5-.32-.74-.09-.22-.21-.38-.37-.53-.18-.14-.28-.24-.41-.31-.18-.17-.39-.31-.57-.46-.12-.05-.21-.12-.3-.1-.23.05-.41-.02-.62-.07-.62-.12-1.54-.19-2.27-.19h-3.1v.02l-.55-.02c-.09.02-.18.02-.3,0h-3.37c-.62,0-1.15.05-2.02.14-.21.02-.57.12-.8.07-.11-.02-.18.05-.3.1-.34.24-.48.34-.6.46-.16.1-.28.19-.39.31-.23.24-.32.36-.39.53-.16.29-.25.5-.32.74-.07.55-.25,1.1-.18,1.66,0,.26-.02.5-.02.74v.74c-.02.5-.07.07-.07.6s.02.55.02,1.03h-.02v.5c0,.53.05.1.05.6v.74c0,.24.02.48.02.74-.07.48.09.98.16,1.54.07.26.21.5.32.74.09.22.21.38.37.53.18.14.28.24.41.31.18.17.39.31.57.46.12.05.21.12.3.1.23-.05.41.05.62.07.76.1,1.65.14,2.27.14h2.64v-.02l.55.02c.09-.02.18-.02.3,0h2.43c.3,0,.62-.02.92-.02h.39c.69,0,.85,0,1.08-.02.25.02.53.02.8,0,.14-.02.3.05,1.91-.05.16-.02.34-.02.53-.05.02,0,.04-.02.07-.02.07-.02.14-.02.18-.07.12-.07.21-.17.32-.24.21-.17.32-.41.34-.74.02-.05.02-.07.02-.19v-.58c0-.36.02-.74.02-1.1,0-.1.09-.17.18-.17l1.93-.14c.16-.02.32-.02.46,0,.16.02.3.14.34.29.02.02.02.05.02.14.02.07.02.12.02.36-.02.29-.02.6,0,.91,0,.65-.05,1.22-.12,1.8-.07.79-.23,1.25-.55,1.63-.09.14-.25.31-.44.48-.39.22-.76.38-1.33.58l-.57.1c-.44.07-.8.1-1.15.05-.09,0-.18,0-.32.05-.07,0-.14.02-.21,0-.41-.05-.85-.05-1.26-.07-.21,0-.39.1-.6.05-.21,0-.39-.02-.6.02-.14.02-.28.02-.39,0l-.12-.02s-.02.05-.07.05c-.12,0-.16,0-.21-.02Z"/><path class="cls-1" d="M179.7,102.77c-.44-.02-.85-.02-1.26,0h-.83c-.3-.02-.6-.07-.89-.07-.28,0-1.22.02-1.47.05-.48-.02-.16.02-.67,0-.71-.05-.53-.02-1.24.02-.71,0-1.42-.05-2.16-.05h-.3c-.76.07-1.51.12-2.27.02h-.07c-.53.05-1.06-.02-1.58.02-.18.02-.39-.02-.62-.02h-1.7c-.28,0-.55.02-.83.05-.46.02-.92.02-1.4.02-.16,0-.3,0-.46-.02-.05,0-.12-.02-.18-.05-.05-.07-.12-.17-.16-.22v-.12c.16-.67.14-1.18.09-1.54,0-.17-.02-.31-.02-.46,0-.07.02-.14.04-.22.16-.05.32-.12.48-.14.18-.07.39-.1.57-.1.5,0,1.01,0,1.51.05.32.02.64-.02.99-.07.14-.24.14-.48.11-.74-.04-.7.02-1.42.02-2.11v-1.13c0-.43.02-.86.02-1.27-.02-.34-.02-.65,0-.98,0-1.22,0-2.45-.02-3.7.02-1.1,0-2.06.02-2.78,0-.29-.02-.58-.07-.86-.25-.12-.76-.02-1.01-.05h-.71c-.28-.02-.76-.05-1.01-.02-.23,0-.46.12-.73,0,0-1.13-.07-1.97.07-2.78.11-.12.21-.1.3-.1.39.02,1.06.07,1.47.05.3,0,.62-.02,1.17-.02.48,0,.94.02,1.42.02.41,0,.8-.02,1.19,0,.39-.02.76-.02,1.12-.02.34,0,.71,0,1.08.02,1.38,0,1.58.02,1.84,0,.3-.1.6.02.92-.02.18,0,.21-.07.46.12l-.02,1.46c0,.17.02.34.02.5-.02.38.02.38-.09.74-.39,0-1.01.12-1.45.02-.23-.05-.46,0-1.84-.02-.3-.02-.62-.02-.92-.02-.09,0-.18.05-.28.07-.02.34-.07.62-.05.96.02.38-.02.74-.04,1.18,0,.62-.05,1.13-.05,1.99-.02.34.02.65.05,1.01-.02.48,0,.96-.02,1.46.02.48.02.98.02,1.44v1.8c-.02.7.02,1.34.07,2.04l.07,1.61c0,.07.02.14.02.24.14,0,.28.02.39.02h1.51c.32,0,.67-.02.99,0,.48,0,.94.02,1.38.02.18.02.41,0,.6,0,.32,0,.64-.02,1.01,0-.18.02-.25.02.5.02.64,0,2-.02,2.64-.1h.46c.37,0,.69-.02,1.03-.02h1.12c.12,0,.09,0,.23-.02.28-.5.48-1.03.71-1.51.25-.7.62-1.49.92-2.16.09-.19.21-.36.3-.53.71-.19,2.43-.19,3.05-.12.11.26-.14.53-.18.77-.16.36-.3.67-.41,1.01-.05.12-.12.22-.18.34-.25.41-.39.84-.6,1.25-.18.48-.41.91-.64,1.34-.09.19-.18.36-.23.55-.07.14-.12.53-.18.67-.05.14-.14.29-.16.43-.07.34-.21.67-.57.86-.78-.02-1.61-.07-2.43-.1Z"/><path class="cls-1" d="M212.63,86.18c-.07.07-.14.14-.25.1-.07-.02-.62-.02-.69-.02h-1.51c-.12.02-.25.14-.23.26,0,.17,0,.31-.02.48-.05.12-.07.26-.05.38.07.41,0,.48.05.89-.02.14.02.31.05.46.02.12.02.22,0,.31-.07.24-.09.48-.09.72,0,.14,0,.31.05.46.05.24.07.48.05.72,0,.48.02.86,0,1.34.02.46.02.91.02,1.34,0,.17.02.34.04.48-.02.6-.02,1.22-.07,1.82,0,.07,0,.17-.02.24-.09.22-.02.41.02.62-.07.43-.12.89-.14,1.32-.02.38-.09.74-.21,1.08-.07.24-.12.46-.21.72l-.18.31c-.14.31-.37.55-.6.79-.11.14-.28.26-.5.41.09.07-.28.36-.39.46-.23.17-.48.26-.69.41-.05.05-.12.05-.16.07-.23.07-.46.17-.71.26-.14.02-.3,0-.44.02-.32,0-.62.02-.92.1-.18.05-.39.07-.6.05-.48-.02-1.1,0-1.58,0-.67,0-1.35-.02-2.04.02h-.44c-.57-.02-.9,0-1.45.02-.37.02-1.88,0-2.25.02-.25-.05-.62-.02-.87,0h-.07c-.11-.02-.21-.05-.3-.05h-2.23c-.09-.05-.16-.07-.23-.1-.07-.02-.16,0-.23.02-.25.07-.51.02-.76.05-.07,0-.14-.02-.21-.02-.21-.14-.44-.12-.69-.14-.12,0-.21-.12-.32-.17-.11-.07-.25-.12-.34-.17-.14-.1-.28-.17-.41-.24-.32-.14-.62-.36-.9-.62-.21-.22-.41-.46-.6-.7-.14-.19-.28-.41-.34-.62-.11-.24-.21-.48-.3-.74-.02-.14-.07-.31-.12-.46,0-.12-.05-.26-.05-.38-.07-.17-.11-.31-.11-.46,0-.19-.02-.38-.02-.58s0-.41-.02-.62c-.02-.12-.04-.26-.04-.38.04-.43.02-.84,0-1.27,0-.07,0-.17-.02-.24.07-.65,0-1.32,0-1.97.02-.24.02-.48,0-.72-.02-.05-.02-.1-.02-.17l.07-.31c0-.12-.02-.26,0-.38,0-.31.02-.62.02-.96.02-.65,0-1.32-.02-1.97,0-.34-.02-.7,0-1.03,0-.14-.02-.46,0-.77.02-.12,0-.22-.02-.31-.02-.02-.02-.05-.05-.1-.07-.02-.11-.07-.21-.1-.07-.02-.14-.05-.21-.05-.21,0-.99,0-1.17.05-.07.02-.16.05-.23,0-.09-.02-.18-.05-.3-.05-.09.02-.18,0-.3-.02-.09-.05-.18-.12-.18-.22-.07-.5-.05-1.01.02-1.68.05-.12.02-.24-.02-.38-.02-.07-.02-.14,0-.22.02-.1.14-.22.21-.22.18,0,.37-.02.53-.05.11,0,.21.12.3.1.14-.05.71-.05.83-.02.09.02.16.02.23.05.21.05.39-.07.6-.07.32-.02.62,0,.92.05.05.02.09.02.14.02.28-.07.55,0,.83.02.21-.07.39-.1.6-.07.18,0,.37.02.53.05.09,0,1.79,0,1.86-.02.18-.02.34-.05.53,0,1.33.02.8.02,1.01.05.18-.02.37-.05.57-.05.09-.02.21.1.21.19s.02.22.02.31l-.02,1.13c.02.29-.02.58-.02.86-.02.12-.11.24-.23.26.11.02.02.02-.07.02-.25,0,.39.02-1.06-.05-.16-.02-.3-.02-.46.02s-1.97-.02-2.16.05c-.05.02-.09.05-.09.1-.02.05-.05.1-.05.14,0,.46-.05.91,0,1.18-.05.7,0,1.39.02,2.06,0,.05,0,.12-.02.17-.05.58-.02,1.15,0,1.73,0,.67-.02,1.42-.02,2.16.02.24.02.48.02.7.02.34.02.7-.02,1.01-.02.14-.02.31,0,.48.07.43.12.89.12,1.32,0,.19.02.38.07.55.02.05.05.1.05.14.02.14.09.26.14.38.12.19.3.36.37.6.02.07.09.12.14.17.16.19.32.34.55.48.11.05.23.1.34.17.12.05.23.1.34.1l.37.07c.12.02.21.05.32.05h.3c.6,0,.9.02,1.49,0,.85,0,1.61.02,2.46,0,.99-.02,2.25-.05,3.01,0h.3c.39.02.76-.05,1.15,0,.34.02.69,0,1.06.02.3,0,.6-.02.9-.02.48-.02.96-.12,1.42-.24l.14-.07c.25-.12.46-.29.64-.53.11-.19.28-.36.39-.58.09-.19.21-.36.25-.58.09-.36.23-.7.28-1.06,0-.26.04-.53.04-.79,0-.36.05-.74-.02-1.1v-.17c.05-.38.02-.79.02-1.18,0-.22.02-.41-.02-.62-.02-.17,0-.31.02-.48.07-.31,0-.62,0-.86-.02-.7.02-1.37-.02-2.06.05-.53.02-1.06-.02-1.58,0-.36.02-.43-.05-.79,0-.02.02-.05.02-.07,0-.1.02-.17,0-.24-.02-.07-.05-.14-.05-.19l.07-.34s-.09-.17-.14-.19c-.04,0-.09-.02-.14-.02h-2.13c-.34-.02-.96-.02-1.29-.02-.07,0-.16-.02-.23-.05-.09,0-.23-.17-.25-.26-.02-.26-.04-.53.02-1.1.05-.36.07-.72.05-1.1,0-.1.09-.19.18-.24s.18-.05.3-.02c.44.1,2.04.05,2.5.05.25-.07,1.01.02,1.29-.07.16.02.34.07.5.02.11-.02.21-.02.32-.02.18,0,.39-.02.6-.02.44.02.85.05,1.29.02.57,0,1.17-.02,1.74-.02.09,0,.67,0,.76.02.21.05.3.22.32.38.02.26.02.53,0,.79,0,.17,0,.62.02.79.05.26.02.53-.05.79Z"/><path class="cls-1" d="M241.77,97.41c-.02.46-.12.89-.21,1.32-.02.22-.07.41-.12.6-.11.5-.32.96-.67,1.39-.07.07-.11.17-.18.24-.18.19-.34.43-.57.53-.09.05-.16.12-.25.19-.32.26-.67.48-1.1.55-.32.07-.64.17-.94.26-.14.05-.28.07-.41.07-.53,0-1.01.17-1.51.19-.39.02-.8.02-1.19.07-.28-.07-.53-.1-.8-.02-.11.02-.23,0-.32,0h-.99c-.41,0-.8-.05-1.19-.05-.34.02-.69-.02-1.01.02-.85-.05-1.58-.02-2.25-.02-.3,0-.6,0-.92-.02-.14,0-.28-.02-.44-.02-.25,0-.53,0-.8-.02-.32,0-.9,0-1.19.02-.32,0-.64.02-.99.02-.21.02-.44.05-.64.05-.39,0-.83-.02-1.22-.02-.57.02-1.17.02-1.74.05h-.73c-.39,0-.73.02-1.1-.05h-.28c-.34,0-.71,0-1.06-.07-.16-.02-.32,0-.48,0l-.92.02v-1.03h-.02s.02-.05.02-.07c-.02-.24-.05-.5-.05-.74q-.02-.17-.07-.29s-.02-.29.11-.6c.07-.02.16-.05.23-.05.41.02.83.05,1.22,0,.18-.02.37.02.57-.02.16,0,.32.02.48-.02.02-.05.05-.1.05-.12.04-.41.11-.94.14-1.42v-2.59c0-.6-.02-1.2-.04-1.78,0-.96.02-1.92.02-2.86-.02-.62-.05-1.27-.02-1.92,0-.74.02-1.49.02-2.23,0-.22-.02-.41-.02-.62,0-.07-.05-.14-.05-.22-.09-.05-.87-.05-1.42-.05-.16,0-.3.02-.44.02-.23.02-.48.02-.73.05-.11,0-.3-.07-.37-.14-.05-.48-.07-.94-.11-1.37-.02-.22-.02-.43-.02-.65,0-.14.07-.26.16-.38.07-.12.14-.14.23-.19.04,0,.11.02.21.02.05,0,.21.02.25,0,.55-.05.96.02,1.56,0,.6-.07,1.22-.02,1.81-.05.48,0,.99.02,1.47,0h.21c.94.02,1.86,0,2.78-.02h.3c.55.02,1.38-.05,1.93-.02.23,0,.46,0,.69.02.85.02,1.72-.02,2.57.02,1.26.05,2.29.05,3.3.02.37-.02.78-.02,1.15-.02h.41c.18,0,.37-.02.57-.05.32.02.64,0,.96,0,.23,0,.48.02.76.02.64.02,1.29.12,1.95.29.16.02.32.12.48.19.55.29.94.72,1.26,1.2.16.24.28.5.34.77.07.22.09.46.09.67-.02.58-.05,1.15-.18,1.7-.05.1-.07.22-.12.34-.21.53-.41,1.06-.62,1.42-.05.07-.07.14-.12.19-.18.43-.39.79-.57,1.2-.04.1-.09.22-.14.38.04,0,.07.02.11.05.28.14.55.29.83.46.44.22.8.53,1.08.98.23.38.46.77.62,1.18.09.22.14.67.21.94.18.77.21,1.42.18,2.09ZM238.69,95.97c-.02-.19-.07-.48-.23-.67-.09-.12-.16-.24-.23-.48-.23-.34-.48-.58-.89-.65l-.99-.14c-.37-.05-.71-.12-1.06-.12-.39.02-.8.02-1.19-.02-.09,0-.18.02-.3.02-.16.02-.34.1-.5.05-.25-.05-.53-.02-.8-.02-.28-.02-.55,0-.85-.02-.41,0-.83-.02-1.22,0-.5.02-1.26,0-1.77,0-.14-.02-.3-.05-.44-.02-.28.1-.53.07-.78.05-.48-.05-.96-.1-1.42-.05h-.41c-.73-.05-1.26,0-1.74.07-.21.02-.41-.05-.62-.05-.18.02-.34.02-.5.02s-.32.05-.48.05c-.28,0-.55-.02-.85-.02-.21,0-.25.22-.25.43v.94c0,.5-.02,1.1-.04,1.61,0,.46,0,1.3-.02,1.78-.02.34-.02.79.09,1.25.07.02.12.02.16.02l.83.07c.9.07,1.81.02,2.71.02h2.09c.44.02.85,0,1.29,0,.57.02,1.38-.07,1.93,0h.5c.53.05,1.06.07,1.61.1h.44c.18-.05.37-.05.55-.07.23,0,.44-.02.67-.02l.64-.07h.87l.87-.14c.34-.07.69-.17,1.01-.22.18-.05.34-.12.48-.26.3-.38.57-.5.78-1.34.18-.72.14-1.39.09-2.06ZM221.27,91c.18.02.34.02.53.02.25.02.51.1.76.07,1.29-.02,1.08.05,2.39-.05.18-.02,2.11.07,2.29.05.23-.02,1.95-.02,2.2,0,.55,0,2.43.02,3.21,0,1.45,0,3.26-.02,3.08-.02.07-.1.11-.14.18-.22.28-.48.55-.98.85-1.34.14-.26.28-.55.37-.86.14-.41.25-.82.21-1.27-.02-.55-.41-1.18-1.45-1.18l-1.47-.02c-.18,0-1.56.02-1.74,0-.39-.07-.8-.07-1.24-.07-.21,0-.44.05-.64.02h-1.74c-.25-.02-.53-.02-.83.02-.18.02-.37.02-.55-.02-.14-.02-.32-.05-.46-.02-.3.05-.6.05-.87,0-.25-.02-.51.07-.76-.02-.07-.02-.12.02-.18.02-.32.05-.41.05-.46.05-.16-.05-.32-.1-.48-.07-.3,0-.6.02-.92.02-.46,0-.89,0-1.33-.05-.34-.02-.64,0-.94.07-.02.12-.05.19-.05.29.05.29,0,.53-.02.82,0,.46-.02.91,0,1.39.04.48.04.96-.05,1.75-.02.22,0,.46.12.62Z"/></svg>