<?xml version="1.0" encoding="UTF-8"?>
<svg id="Layer_1" data-name="Layer 1" xmlns="http://www.w3.org/2000/svg" viewBox="0 0 432 144">
  <defs>
    <style>
      .cls-1 {
        fill: #420abe;
      }

      .cls-2 {
        fill: #1b1464;
      }

      .cls-3 {
        fill: #ff4c67;
      }
    </style>
  </defs>
  <g>
    <path class="cls-3" d="M192.21,46.2c.58-4.99.58-18.08,0-23.03-.23-1.99-.88-2.22-1.19-2.55h13.78l4.25,9.53,3.57-9.53h14.17c-.31.33-.92.57-1.15,2.55-.58,4.95-.58,18.04,0,23.03.23,2.01.84,2.05,1.15,2.36h-18.67c4.93-4.23,3.9-9.86,3.9-18.88l-7.37,16.56h-.68l-8.79-16.6c0,8.98,2.55,14.69,7.5,18.92h-11.65c.31-.31.96-.35,1.19-2.36Z"/>
    <path class="cls-3" d="M236.93,46c.16-1.29.19-1.68.25-3.8,0-2.26-3.41-9.1-5.83-14.52-1.56-3.39-3.49-6.74-3.8-7.07h14.85c1.44,3.53,5.38,12.41,7.05,17.93.25-.56.92-2.32.84-3.72-.04-1.54-.51-2.9-1.83-6.45-1.27-3.53-3.16-7.42-3.47-7.76h15.53c-.33.33-2.24,3.68-3.8,7.07-2.44,5.42-5.83,12.26-5.83,14.52.04,2.12.08,2.51.23,3.8.23,1.99.88,2.24,1.21,2.55h-16.6c.31-.31.99-.56,1.19-2.55Z"/>
    <path class="cls-3" d="M265.03,48.5c-1.75,0-3.47.14-5.07.55v-11.96c3.58,5.09,11.24,9.28,14.77,9.28,1.15,0,1.85-.43,1.85-1.42,0-3.76-16.99-3.88-16.99-15.33,0-6.29,4.07-9.45,12.18-9.45,2.92,0,6.16.47,9.24.47,1.54,0,3.04-.12,4.46-.47v9.16c-2.36-4.36-8.38-6.47-12.16-6.47-1.93,0-3.29.55-3.29,1.62-.02,3.2,17.87,2.3,17.87,15.08,0,5.87-4.23,9.55-11.36,9.55-3.92,0-7.85-.58-11.5-.58Z"/>
    <path class="cls-3" d="M294.23,46.04c.58-4.95.57-18.02,0-22.97-2.65-.04-5.09,1.6-7,3.92v-6.43h27.38v6.43c-1.91-2.32-4.34-3.96-7-3.92-.55,4.95-.57,18.02-.02,22.97.25,1.95.9,2.2,1.21,2.51h-15.72c.27-.31.92-.56,1.15-2.51Z"/>
    <path class="cls-3" d="M317.32,46.04c.58-4.95.55-17.97,0-22.92-.21-1.95-.88-2.18-1.15-2.51h15.72c-.33.33-.95.57-1.21,2.51-.55,4.95-.55,17.97,0,22.92.25,1.95.88,2.2,1.21,2.51h-15.72c.27-.31.92-.56,1.15-2.51Z"/>
    <path class="cls-3" d="M332.87,34.58c0-7.97,5.55-14.44,15.26-14.44,9.06,0,13.29,3.55,13.29,8.22,0,3.9-3.35,5.79-7.46,5.79s-7.42-1.89-7.42-5.79c0-4.6,4.23-4.91,7.97-4.91-1.36-.39-2.73-.6-4.01-.6-3.9,0-7.03,1.93-7.03,6.62,0,5.69,5.81,8.13,10.39,8.13,2.96,0,5.42-1.03,5.42-2.86,4.91,0,6.04,14.3-10.79,14.3-10.23,0-15.59-6.47-15.59-14.46Z"/>
    <path class="cls-3" d="M372.18,20.61h14.21c1.03,4.23,8.46,24.79,11.69,27.94h-13.56l-2.1-4.89c.49,2.73-1.46,4.89-4.36,4.89h-17.56c3.23-3.16,10.66-23.71,11.69-27.94ZM380.17,43.2c0-1.87-.55-4.66-1.52-7.97-1.64-5.55-2.75-9.18-4.56-9.18-1.34,0-1.64,1.6-1.64,3.25,0,1.99.45,4.75,1.25,7.95,1.54,6.12,3.39,8.44,5.22,8.44.86,0,1.25-.92,1.25-2.49Z"/>
    <path class="cls-3" d="M399.62,46.04c.58-4.95.57-17.97,0-22.92-.23-1.95-.88-2.18-1.15-2.51h15.72c-.33.33-.95.57-1.21,2.51-.55,4.95-.51,17.91.04,22.86,2.65.04,7.17-1.54,9.08-3.86v6.43h-23.64c.27-.31.92-.56,1.15-2.51Z"/>
    <path class="cls-3" d="M202.84,84.8c.58-4.99.58-18.08,0-23.03-.23-1.99-.88-2.22-1.19-2.55h13.78l4.25,9.53,3.57-9.53h14.17c-.31.33-.92.57-1.15,2.55-.58,4.95-.58,18.04,0,23.03.23,2.01.84,2.05,1.15,2.36h-18.67c4.93-4.23,3.9-9.86,3.9-18.88l-7.37,16.56h-.68l-8.79-16.6c0,8.98,2.55,14.69,7.5,18.92h-11.65c.31-.31.96-.35,1.19-2.36Z"/>
    <path class="cls-3" d="M249.49,59.22h14.21c1.03,4.23,8.46,24.79,11.69,27.94h-13.56l-2.1-4.89c.49,2.73-1.46,4.89-4.36,4.89h-17.56c3.23-3.16,10.66-23.71,11.69-27.94ZM257.48,81.8c0-1.87-.55-4.66-1.52-7.97-1.64-5.55-2.75-9.18-4.56-9.18-1.34,0-1.64,1.6-1.64,3.25,0,1.99.45,4.75,1.25,7.95,1.54,6.12,3.39,8.44,5.22,8.44.86,0,1.25-.92,1.25-2.49Z"/>
    <path class="cls-3" d="M273.15,73.19c0-9.14,6.72-14.44,15.26-14.44,3.16,0,6.08.49,8.96.49,1.44,0,2.88-.12,4.33-.49v8.77c-3.16-5.2-4.97-5.86-8.28-5.9-4.13-.04-6.57,4.07-6.57,11.65,0,8.69,1.99,11.77,4.11,11.77,0-4.38-.16-10.78-.45-13.19-.2-1.93-.84-2.2-1.15-2.47h15.39c-.31.27-1.15.55-1.15,2.47v15.8c-.72-.72-3.27-.8-5.9-.8-3.51,0-5.98.8-9.29.8-8.54,0-15.26-5.32-15.26-14.46Z"/>
    <path class="cls-3" d="M306.69,84.64c.58-4.95.55-17.97,0-22.92-.21-1.95-.88-2.18-1.15-2.51h15.72c-.33.33-.95.57-1.21,2.51-.55,4.95-.55,17.97,0,22.92.25,1.95.88,2.2,1.21,2.51h-15.72c.27-.31.92-.57,1.15-2.51Z"/>
    <path class="cls-3" d="M322.24,73.19c0-7.97,5.55-14.44,15.26-14.44,9.06,0,13.29,3.55,13.29,8.22,0,3.9-3.35,5.79-7.46,5.79s-7.42-1.89-7.42-5.79c0-4.6,4.23-4.91,7.97-4.91-1.36-.39-2.73-.6-4.01-.6-3.9,0-7.03,1.93-7.03,6.62,0,5.69,5.81,8.13,10.39,8.13,2.96,0,5.42-1.03,5.42-2.87,4.91,0,6.04,14.3-10.79,14.3-10.23,0-15.59-6.47-15.59-14.46Z"/>
    <path class="cls-3" d="M361.55,59.22h14.21c1.03,4.23,8.46,24.79,11.69,27.94h-13.56l-2.1-4.89c.49,2.73-1.46,4.89-4.36,4.89h-17.56c3.23-3.16,10.66-23.71,11.69-27.94ZM369.54,81.8c0-1.87-.55-4.66-1.52-7.97-1.64-5.55-2.75-9.18-4.56-9.18-1.34,0-1.64,1.6-1.64,3.25,0,1.99.45,4.75,1.25,7.95,1.54,6.12,3.39,8.44,5.22,8.44.86,0,1.25-.92,1.25-2.49Z"/>
    <path class="cls-3" d="M388.99,84.64c.58-4.95.57-17.97,0-22.92-.23-1.95-.88-2.18-1.15-2.51h15.72c-.33.33-.95.57-1.21,2.51-.55,4.95-.51,17.91.04,22.86,2.65.04,7.17-1.54,9.08-3.86v6.43h-23.64c.27-.31.92-.57,1.15-2.51Z"/>
    <path class="cls-3" d="M254.56,116.14c2.31-4.51,6.51-8.14,10.54-8.14,1.88,0,3.23,1.16,3.43,3.19l6.79-13.37h4.95l-11.62,22.79c-.68,1.32-.52,1.96.2,1.96,1.12,0,2.51-1.04,6.79-6.15l.2-.24,1.2,1.04-.2.24c-4.91,5.91-7.78,8.9-10.98,8.9-1.48,0-2.87-.76-2.87-2.59,0-.2,0-.36.04-.56-1.8,1.96-3.83,3.15-5.95,3.15-4.75,0-4.91-5.51-2.51-10.22ZM260.11,122.69c1.84,0,4.19-2.79,5.43-5.27,1.36-2.59,2.24-6.87.08-6.87-1.68,0-4.03,2.28-5.67,5.63-1.56,2.91-2.04,6.51.16,6.51Z"/>
    <path class="cls-3" d="M286.17,108c4.91,0,6.11,5.23,3.75,10.58,1.16.12,2.91-.68,4.15-2.16l.2-.24,1.24,1.04-.2.24c-1.72,2.04-3.87,3.07-5.55,3.07-.28,0-.56-.04-.84-.08-2,3.31-5.23,5.95-8.82,5.95-5.23,0-6.75-5.63-3.83-11.26,2-3.95,5.75-7.14,9.9-7.14ZM288.49,111.39c-.44-.8-1.16-1.32-2.2-1.32-2.04,0-4.27,1.92-5.55,4.39-1.68,3.23-1.2,7.03,1.68,7.03,1.48,0,3.03-.92,4.31-2.39-1.12-1.44-1.16-3.71-.2-5.63.52-1,1.24-1.68,1.96-2.08Z"/>
    <path class="cls-3" d="M301.1,120.69c1.2-2.36,2.91-4.91,3.91-6.83.76-1.48.6-2.43-.56-2.43-1.84,0-3.87,2.04-6.19,6.59l-3.95,7.74h-4.95l8.74-17.16h4.47l-1.4,2.95c2.08-2.24,4.39-3.55,6.83-3.55,1.88,0,2.91,1.12,2.91,2.55,0,1-.44,2.16-1.16,3.59-1,1.92-2.67,4.63-3.63,6.47-.68,1.32-.56,1.96.16,1.96,1.12,0,2.51-1.04,6.79-6.15l.2-.24,1.24,1.04-.2.24c-4.95,5.91-7.82,8.9-11.46,8.9-1.72,0-2.75-.92-2.75-2.59,0-.88.4-1.92,1-3.07Z"/>
    <path class="cls-3" d="M320.13,122.05c-2.24,2.43-4.83,4.31-7.42,4.31-1.6,0-2.63-1.16-2.63-2.59,0-.76.28-1.84.88-3.07l6.15-12.09h4.95l-5.59,10.94c-.64,1.24-.88,1.96-.88,2.36,0,.48.36.76.8.76,1.76,0,4.75-3.23,6.91-7.5l3.35-6.55h4.91l-6.11,12.01c-.68,1.32-.52,1.96.16,1.96,1.16,0,2.55-1.04,6.83-6.15l.2-.24,1.24,1.04-.2.24c-4.95,5.91-7.82,8.9-10.98,8.9-1.48,0-2.87-.76-2.87-2.59,0-.48.08-.96.32-1.72Z"/>
    <path class="cls-3" d="M329.51,123.64c0-.84.32-2,.8-2.99l5.19-10.26h-2.31l.92-1.8h2.32l2.35-4.63h4.99l-2.35,4.63h3.63l-.92,1.8h-3.63l-5.15,10.1c-.68,1.36-.44,2.08.4,2.08,1.32,0,3.95-1.36,7.94-6.15l.2-.24,1.24,1.04-.2.24c-4.79,5.75-8.94,8.9-12.57,8.9-1.88,0-2.83-1.16-2.83-2.71Z"/>
    <path class="cls-3" d="M344.84,121.25c1.56,0,2.71,1.36,3.23,2.32.56-.68,1.08-1.88,1.08-3.71,0-1.64-.24-3.51-.24-5.19,0-.76.04-1.52.2-2.28-1.28,1.56-2.55,3.11-3.99,4.83l-.2.24-1.24-1.04.2-.24c2.2-2.63,4.59-5.47,6.71-8.18h3.59c.2,0,.28.08.28.2,0,.08-.04.16-.08.24-.6.96-1,2.24-1,3.59,0,1.96.52,3.91.52,6.39,0,1.44-.24,2.87-.88,4.11,2.04-1.6,3.99-3.71,5.95-6.11l.2-.24,1.24,1.04-.2.24c-5.99,7.18-9.98,9.46-13.93,9.46s-4.75-2.79-3.87-4.35c.4-.76,1.24-1.32,2.43-1.32Z"/>
  </g>
  <path class="cls-1" d="M120.32,31.37s.99,9.22,10.38,3.8c2.94,4.11,8.35,5.54,12.85,2.78,14.53,21.64,13.74,50.5-2.31,71.35s-42.84,29.14-68.26,20.66c-23.12-7.72-40.18-29.48-41.42-54.81-.89-18.19,6.26-35.8,19.53-48.07s32.06-18.35,50.68-15.6c-1.68,5,.51,10.05,5.02,12.57-.74,3.36.46,6.2,2.95,7.78,2.26,1.43,6.67,1.92,10.57-.45ZM42.8,70.8c.17-14.27,6.52-27.31,17.26-36.34,1.05-.89,1.34-2.21.36-3.25-.79-.84-2.02-.72-3.05.15-11.81,10.01-18.72,24.4-18.69,39.97,0,1.29,1.19,2.14,2.23,2.05,1.21-.1,1.87-1.01,1.89-2.59ZM122.76,55.54c-3.66-6.59-9.2-11.72-15.95-14.75-1.26-.57-2.46.08-2.87,1.29-.25.75.22,1.97,1.21,2.43,5.97,2.77,10.74,7.09,13.92,12.86.59,1.06,1.87,1.43,2.8.95.82-.42,1.52-1.65.89-2.78ZM90.39,47.43c-13.84,1.3-23.65,13.72-22.25,27.12,1.41,13.42,13.44,23.3,26.85,22.03,13.49-1.27,23.59-13.38,22.29-26.89s-13.09-23.56-26.9-22.26ZM94.4,110.33l-6.13,6.45c-3.3,3.47-8.47,3.51-11.65-.15-4.24-4.88-5.25-12.67-13.17-10.94l-6.56,1.43c-1.22.27-3.09.02-3.92-.93-1.18-1.35-1.74-3.18-1.86-4.93l-.48-7.1c-.15-2.3-2.01-3.9-4.28-3.53-1.93.31-3.72.93-5.58,1.8,2.49,6.5,6.21,12.24,10.74,17.2,22.13,24.27,60.27,24.28,82.39,0,1.06-1.17,2.11-2.75,1.74-4.65-.32-1.66-2.15-2.59-3.89-2.24-1.63.33-3.37,1.18-4.6,2.36l-5.88,5.68c-3.06,2.95-6.9,4.4-10.61,1.36-1.62-1.32-3.3-2.76-5.04-3.75-3.97-2.27-8.13-1.32-11.23,1.95Z"/>
  <path class="cls-2" d="M154.91,61.49l.86,9.26c9.13,4.94,15.58,9.03,14.75,12.78-2.03,9.09-36.02,6.46-78.14-2.95-42.12-9.42-73.89-21.93-71.86-31.02.8-3.59,5.82-3.96,15.49-4.64l4.76-8.83c-17.32.68-33.16,4-34.66,10.7-2.95,13.2,32.85,33.67,81.52,44.56,48.68,10.88,93.1,11.71,94.75-5.15.68-6.92-11.69-16.59-27.48-24.69Z"/>
</svg>